<svg width="24" height="24" viewBox="0 0 24 24" fill="none" xmlns="http://www.w3.org/2000/svg">
<path d="M12.0003 3.68373e-09C9.6269 -5.87912e-05 7.30678 0.703684 5.33335 2.02224C3.35991 3.34079 1.8218 5.21493 0.913508 7.40765C0.00521954 9.60038 -0.232446 12.0132 0.230567 14.341C0.693581 16.6688 1.83648 18.807 3.51472 20.4853C5.19297 22.1635 7.33119 23.3064 9.65899 23.7694C11.9868 24.2324 14.3996 23.9948 16.5923 23.0865C18.7851 22.1782 20.6592 20.6401 21.9778 18.6667C23.2963 16.6932 24.0001 14.3731 24 11.9997C23.9965 8.81827 22.7311 5.76815 20.4815 3.51854C18.2318 1.26892 15.1817 0.00354075 12.0003 3.68373e-09ZM12.0003 23.2015C9.78485 23.2016 7.61913 22.5447 5.77702 21.3139C3.9349 20.0831 2.49913 18.3337 1.65126 16.2869C0.803387 14.2401 0.5815 11.9879 1.01366 9.81498C1.44581 7.64209 2.5126 5.64613 4.07912 4.07953C5.64564 2.51293 7.64153 1.44603 9.8144 1.01376C11.9873 0.581493 14.2395 0.803257 16.2864 1.65102C18.3332 2.49878 20.0827 3.93446 21.3136 5.77651C22.5445 7.61856 23.2015 9.78425 23.2015 11.9997C23.1982 14.9695 22.0171 17.8167 19.9171 19.9167C17.8172 22.0167 14.9701 23.1981 12.0003 23.2015Z" fill="#444444"/>
<path d="M12.0003 3.68375e-09C9.6269 -5.87912e-05 7.30678 0.703685 5.33335 2.02224C3.35991 3.34079 1.8218 5.21493 0.913508 7.40765C0.00521958 9.60038 -0.232446 12.0132 0.230567 14.341C0.693581 16.6688 1.83648 18.807 3.51472 20.4853C5.19297 22.1635 7.33119 23.3064 9.65899 23.7694C11.9868 24.2324 14.3996 23.9948 16.5923 23.0865C18.7851 22.1782 20.6592 20.6401 21.9778 18.6667C23.2963 16.6932 24.0001 14.3731 24 11.9997C23.9965 8.81827 22.7311 5.76815 20.4815 3.51854C18.2318 1.26892 15.1817 0.00354075 12.0003 3.68375e-09ZM12.0003 23.2015C9.78485 23.2016 7.61913 22.5447 5.77702 21.3139C3.9349 20.0831 2.49913 18.3337 1.65126 16.2869C0.803387 14.2401 0.5815 11.9879 1.01366 9.81498C1.44581 7.64209 2.5126 5.64613 4.07912 4.07953C5.64564 2.51293 7.64153 1.44603 9.8144 1.01376C11.9873 0.581493 14.2395 0.803257 16.2864 1.65102C18.3332 2.49878 20.0827 3.93446 21.3136 5.77651C22.5445 7.61856 23.2015 9.78425 23.2015 11.9997C23.1982 14.9695 22.0171 17.8167 19.9171 19.9167C17.8172 22.0167 14.9701 23.1981 12.0003 23.2015Z" fill="#444444"/>
<path d="M6 17.5217C6 17.8247 6.24539 18.0703 6.54865 18.0703C6.85191 18.0703 7.0973 17.8247 7.0973 17.5217C7.0973 15.5856 8.21188 13.8715 9.94922 13.061C10.5505 13.4517 11.2658 13.6811 12.0346 13.6811C12.8064 13.6811 13.5244 13.4502 14.1271 13.0567C14.6457 13.3015 15.1264 13.6309 15.5264 14.0307C16.4592 14.9638 16.973 16.2036 16.973 17.5217C16.973 17.8247 17.2184 18.0703 17.5217 18.0703C17.8249 18.0703 18.0703 17.8247 18.0703 17.5217C18.0703 15.9105 17.4424 14.3953 16.3022 13.2549C15.9207 12.8732 15.4773 12.5459 15.0016 12.276C15.547 11.6128 15.8752 10.7643 15.8752 9.84055C15.8752 7.72284 14.1521 6 12.0346 6C9.91717 6 8.19407 7.72284 8.19407 9.84055C8.19407 10.7621 8.52087 11.6084 9.06392 12.271C7.18052 13.3314 6 15.3127 6 17.5217ZM12.0346 7.0973C13.5472 7.0973 14.7779 8.32801 14.7779 9.84055C14.7779 11.3531 13.5472 12.5838 12.0346 12.5838C10.5221 12.5838 9.29137 11.3531 9.29137 9.84055C9.29137 8.32801 10.5221 7.0973 12.0346 7.0973Z" fill="#444444"/>
</svg>
