<svg width="24" height="24" viewBox="0 0 24 24" fill="none" xmlns="http://www.w3.org/2000/svg">
<path d="M15.103 14.8544C15.5051 14.8544 15.831 14.5285 15.831 14.1264C15.831 13.7244 15.5051 13.3984 15.103 13.3984C14.7009 13.3984 14.375 13.7244 14.375 14.1264C14.375 14.5285 14.7009 14.8544 15.103 14.8544Z" fill="#444444"/>
<path fill-rule="evenodd" clip-rule="evenodd" d="M15.0966 15.4219C14.6221 15.4219 13.6731 15.6559 13.6406 16.1239C13.9656 16.5854 14.4986 16.8844 15.0966 16.8844C15.6946 16.8844 16.2276 16.5854 16.5526 16.1239C16.5201 15.6559 15.5711 15.4219 15.0966 15.4219Z" fill="#444444"/>
<path fill-rule="evenodd" clip-rule="evenodd" d="M15.75 11.2585V8.1255L10.875 6L6 8.1255V11.317C6 14.268 8.08 17.0305 10.875 17.7C11.2325 17.6155 11.577 17.492 11.915 17.3425C12.617 18.3435 13.7805 19 15.1 19C17.2515 19 19 17.2515 19 15.1C19 13.1695 17.596 11.5705 15.75 11.2585ZM11.2 15.1C11.2 15.464 11.252 15.8215 11.3495 16.153C11.1935 16.2245 11.0375 16.296 10.875 16.348C8.8145 15.698 7.3 13.592 7.3 11.317V8.977L10.875 7.417L14.45 8.977V11.2585C12.604 11.5705 11.2 13.1695 11.2 15.1ZM15.1 17.7C13.6635 17.7 12.5 16.5365 12.5 15.1C12.5 13.6635 13.6635 12.5 15.1 12.5C16.5365 12.5 17.7 13.6635 17.7 15.1C17.7 16.5365 16.5365 17.7 15.1 17.7Z" fill="#444444"/>
<rect x="0.375" y="0.375" width="23.25" height="23.25" rx="11.625" stroke="#444444" stroke-width="0.75"/>
</svg>
