<svg width="24" height="24" viewBox="0 0 24 24" fill="none" xmlns="http://www.w3.org/2000/svg">
<path d="M17.7655 12.706H17.0677V11.2132C17.0677 11.1471 17.0431 11.0836 16.9994 11.0369C16.9557 10.9901 16.8964 10.9639 16.8346 10.9639H15.8994V8.2185C15.9028 8.0852 15.8812 7.95252 15.8359 7.82829C15.7906 7.70407 15.7224 7.59083 15.6355 7.49525C15.5485 7.39968 15.4445 7.32371 15.3297 7.27183C15.2148 7.21996 15.0914 7.19323 14.9667 7.19323C14.8421 7.19323 14.7186 7.21996 14.6038 7.27183C14.4889 7.32371 14.3849 7.39968 14.298 7.49525C14.2111 7.59083 14.1429 7.70407 14.0976 7.82829C14.0522 7.95252 14.0306 8.0852 14.034 8.2185V8.89029C13.8182 8.71184 13.5501 8.62136 13.2776 8.63504C13.0051 8.64871 12.7461 8.76565 12.5469 8.96493C12.242 8.66846 11.8422 8.50876 11.4302 8.51891C11.0183 8.52905 10.6258 8.70826 10.3339 9.01942L10.3144 9.04032L10.3025 9.05376V7.47058C10.306 7.33728 10.2843 7.2046 10.239 7.08037C10.1937 6.95615 10.1255 6.84291 10.0386 6.74733C9.95162 6.65176 9.84765 6.57579 9.73279 6.52391C9.61793 6.47204 9.49452 6.44531 9.36984 6.44531C9.24517 6.44531 9.12175 6.47204 9.0069 6.52391C8.89204 6.57579 8.78807 6.65176 8.70112 6.74733C8.61417 6.84291 8.54602 6.95615 8.50068 7.08037C8.45534 7.2046 8.43374 7.33728 8.43715 7.47058V10.9624H7.84466C7.59447 10.5618 7.23049 10.258 6.80647 10.0957C6.38244 9.93338 5.92085 9.92124 5.48988 10.0611C5.05891 10.2009 4.68141 10.4852 4.41312 10.8721C4.14484 11.259 4 11.728 4 12.2097C4 12.6914 4.14484 13.1603 4.41312 13.5472C4.68141 13.9341 5.05891 14.2184 5.48988 14.3582C5.92085 14.4981 6.38244 14.4859 6.80647 14.3236C7.23049 14.1613 7.59447 13.8575 7.84466 13.4569H8.44412C8.44087 13.4692 8.43854 13.4816 8.43715 13.4943C8.43719 14.4564 8.75898 15.3867 9.34437 16.1172L9.57606 16.4053C9.79952 16.6851 10.0578 16.9307 10.3437 17.1353L11.2342 17.7698V18.196C11.2342 18.2621 11.2587 18.3255 11.3025 18.3723C11.3462 18.419 11.4055 18.4453 11.4673 18.4453C11.5291 18.4453 11.5884 18.419 11.6321 18.3723C11.6758 18.3255 11.7004 18.2621 11.7004 18.196V17.6362C11.7004 17.5951 11.6909 17.5547 11.6727 17.5185C11.6546 17.4823 11.6284 17.4514 11.5964 17.4287L10.6026 16.7203C10.3513 16.5412 10.1242 16.326 9.92779 16.0806L9.6961 15.7918C9.18338 15.1516 8.90146 14.3365 8.90123 13.4935C8.89983 13.4809 8.8975 13.4684 8.89425 13.4562H9.60258V13.8555C9.60252 14.4048 9.68547 14.9506 9.84823 15.4715C9.85669 15.5042 9.87127 15.5347 9.89109 15.5612C9.91091 15.5876 9.93555 15.6095 9.96352 15.6255C9.99149 15.6414 10.0222 15.6511 10.0538 15.654C10.0854 15.6568 10.1172 15.6528 10.1473 15.6421C10.1773 15.6314 10.2051 15.6143 10.2288 15.5918C10.2525 15.5693 10.2717 15.5418 10.2851 15.5112C10.2986 15.4805 10.3061 15.4472 10.3072 15.4133C10.3083 15.3794 10.3029 15.3456 10.2914 15.314C10.1445 14.8438 10.0696 14.3513 10.0695 13.8555V13.4562C10.0705 13.3234 10.1207 13.1965 10.209 13.1031C10.2978 13.0124 10.4159 12.9617 10.5388 12.9617C10.6616 12.9617 10.7797 13.0124 10.8685 13.1031C10.9568 13.1965 11.007 13.3234 11.0081 13.4562V14.393C11.008 14.4368 11.0187 14.4799 11.0392 14.5179C11.0596 14.5559 11.0891 14.5875 11.1246 14.6094L12.2482 15.2961C12.5089 15.4553 12.7255 15.6854 12.8763 15.9631C13.027 16.2407 13.1065 16.556 13.1066 16.8771V17.3861C13.1066 17.4523 13.1311 17.5157 13.1748 17.5624C13.2185 17.6092 13.2778 17.6354 13.3397 17.6354C13.4015 17.6354 13.4608 17.6092 13.5045 17.5624C13.5482 17.5157 13.5727 17.4523 13.5727 17.3861V16.8771C13.5735 16.4678 13.4727 16.0656 13.2808 15.7115C13.0888 15.3575 12.8124 15.0642 12.4799 14.8617L11.4736 14.2467V13.4539H15.4381V15.0364C15.4393 15.4512 15.3634 15.8621 15.215 16.2454C15.0666 16.6286 14.8485 16.9765 14.5735 17.2689C14.5516 17.2919 14.5341 17.3193 14.5222 17.3496C14.5102 17.3798 14.5039 17.4123 14.5037 17.4451V18.1915C14.5037 18.2577 14.5283 18.3211 14.572 18.3678C14.6157 18.4146 14.675 18.4408 14.7368 18.4408C14.7986 18.4408 14.8579 18.4146 14.9016 18.3678C14.9453 18.3211 14.9699 18.2577 14.9699 18.1915V17.5444C15.5712 16.8672 15.9054 15.9681 15.9029 15.0341V13.4517H16.836C16.8978 13.4517 16.9571 13.4254 17.0008 13.3787C17.0445 13.3319 17.069 13.2685 17.069 13.2024H17.7669C17.8287 13.2024 17.888 13.1761 17.9317 13.1294C17.9754 13.0826 18 13.0192 18 12.9531C18 12.887 17.9754 12.8236 17.9317 12.7768C17.888 12.7301 17.8287 12.7038 17.7669 12.7038L17.7655 12.706ZM5.87179 13.9361C5.48334 13.8768 5.12795 13.6695 4.87086 13.3524C4.61377 13.0354 4.47223 12.6297 4.47223 12.21C4.47223 11.7903 4.61377 11.3847 4.87086 11.0676C5.12795 10.7505 5.48334 10.5433 5.87179 10.4839V13.9361ZM7.49014 13.1382C7.36376 13.3521 7.19558 13.5341 6.99717 13.6718C6.79877 13.8096 6.57483 13.8997 6.34076 13.9361V10.4832C6.57489 10.5196 6.79887 10.6099 6.99728 10.7478C7.19569 10.8857 7.36383 11.0678 7.49014 11.2818V13.1382ZM14.503 8.2185C14.5041 8.08571 14.5542 7.95877 14.6426 7.86544C14.7314 7.77469 14.8495 7.72404 14.9723 7.72404C15.0951 7.72404 15.2132 7.77469 15.3021 7.86544C15.3904 7.95877 15.4406 8.08571 15.4416 8.2185V10.9624H14.5002V8.2185H14.503ZM13.8289 9.3471C13.9598 9.48767 14.0336 9.67788 14.034 9.87632V11.4587C14.033 11.5915 13.9828 11.7185 13.8945 11.8118C13.8056 11.9026 13.6875 11.9532 13.5647 11.9532C13.4419 11.9532 13.3238 11.9026 13.235 11.8118C13.1466 11.7185 13.0965 11.5915 13.0954 11.4587V10.2719C13.0958 9.94169 13.0079 9.61822 12.8421 9.33964C12.9761 9.20527 13.1532 9.13112 13.3369 9.13251C13.5205 9.1339 13.6967 9.21073 13.8289 9.3471ZM10.3025 10.2749C10.3021 10.1111 10.3321 9.94892 10.3907 9.79761C10.4492 9.6463 10.5353 9.5089 10.6438 9.39338L10.6633 9.37248C10.877 9.14485 11.1664 9.01704 11.468 9.01704C11.7696 9.01704 12.0589 9.14485 12.2726 9.37248L12.2922 9.39412C12.4009 9.50941 12.4871 9.64662 12.546 9.79781C12.6048 9.949 12.635 10.1112 12.6348 10.2749V11.4617C12.6337 11.5945 12.5836 11.7215 12.4952 11.8148C12.4064 11.9055 12.2883 11.9562 12.1655 11.9562C12.0427 11.9562 11.9246 11.9055 11.8358 11.8148C11.7474 11.7215 11.6972 11.5945 11.6962 11.4617V10.1532C11.6962 10.1205 11.6902 10.0881 11.6784 10.0578C11.6667 10.0276 11.6496 10.0001 11.6279 9.97696C11.6063 9.95381 11.5806 9.93544 11.5523 9.92291C11.524 9.91038 11.4937 9.90394 11.4631 9.90394C11.4325 9.90394 11.4022 9.91038 11.3739 9.92291C11.3456 9.93544 11.3199 9.95381 11.2983 9.97696C11.2766 10.0001 11.2595 10.0276 11.2477 10.0578C11.236 10.0881 11.23 10.1205 11.23 10.1532V10.9624H10.3025V10.2749ZM8.90332 7.47058C8.90439 7.33779 8.95457 7.21085 9.04289 7.11752C9.13171 7.02677 9.24981 6.97612 9.37263 6.97612C9.49546 6.97612 9.61356 7.02677 9.70238 7.11752C9.7907 7.21085 9.84088 7.33779 9.84195 7.47058V10.9624H8.90332V7.47058ZM16.5994 12.9583H11.3396C11.2594 12.8061 11.1428 12.6795 11.0018 12.5913C10.8608 12.5032 10.7004 12.4567 10.537 12.4567C10.3737 12.4567 10.2133 12.5032 10.0723 12.5913C9.93124 12.6795 9.81466 12.8061 9.73448 12.9583H7.97027V11.4617H11.2349C11.235 11.659 11.2898 11.8519 11.3923 12.0159C11.4948 12.1799 11.6405 12.3077 11.811 12.3832C11.9814 12.4587 12.1689 12.4784 12.3498 12.44C12.5307 12.4015 12.6969 12.3066 12.8274 12.1671C12.8428 12.1507 12.8532 12.132 12.8672 12.1149C12.8812 12.132 12.8923 12.1507 12.907 12.1671C13.0375 12.3066 13.2037 12.4015 13.3846 12.44C13.5655 12.4784 13.753 12.4587 13.9234 12.3832C14.0939 12.3077 14.2395 12.1799 14.3421 12.0159C14.4446 11.8519 14.4994 11.659 14.4995 11.4617H16.5987L16.5994 12.9583Z" fill="#444444" stroke="#444444" stroke-width="0.25"/>
<rect x="0.375" y="0.375" width="23.25" height="23.25" rx="11.625" stroke="#444444" stroke-width="0.75"/>
</svg>
