<svg width="24" height="24" viewBox="0 0 24 24" fill="none" xmlns="http://www.w3.org/2000/svg">
<path d="M12.0003 3.68373e-09C9.6269 -5.87912e-05 7.30678 0.703684 5.33335 2.02224C3.35991 3.34079 1.8218 5.21493 0.913508 7.40765C0.00521954 9.60038 -0.232446 12.0132 0.230567 14.341C0.693581 16.6688 1.83648 18.807 3.51472 20.4853C5.19297 22.1635 7.33119 23.3064 9.65899 23.7694C11.9868 24.2324 14.3996 23.9948 16.5923 23.0865C18.7851 22.1782 20.6592 20.6401 21.9778 18.6667C23.2963 16.6932 24.0001 14.3731 24 11.9997C23.9965 8.81827 22.7311 5.76815 20.4815 3.51854C18.2318 1.26892 15.1817 0.00354075 12.0003 3.68373e-09ZM12.0003 23.2015C9.78485 23.2016 7.61913 22.5447 5.77702 21.3139C3.9349 20.0831 2.49913 18.3337 1.65126 16.2869C0.803387 14.2401 0.5815 11.9879 1.01366 9.81498C1.44581 7.64209 2.5126 5.64613 4.07912 4.07953C5.64564 2.51293 7.64153 1.44603 9.8144 1.01376C11.9873 0.581493 14.2395 0.803257 16.2864 1.65102C18.3332 2.49878 20.0827 3.93446 21.3136 5.77651C22.5445 7.61856 23.2015 9.78425 23.2015 11.9997C23.1982 14.9695 22.0171 17.8167 19.9171 19.9167C17.8172 22.0167 14.9701 23.1981 12.0003 23.2015Z" fill="#444444"/>
<path d="M12.0003 3.68375e-09C9.6269 -5.87912e-05 7.30678 0.703685 5.33335 2.02224C3.35991 3.34079 1.8218 5.21493 0.913508 7.40765C0.00521958 9.60038 -0.232446 12.0132 0.230567 14.341C0.693581 16.6688 1.83648 18.807 3.51472 20.4853C5.19297 22.1635 7.33119 23.3064 9.65899 23.7694C11.9868 24.2324 14.3996 23.9948 16.5923 23.0865C18.7851 22.1782 20.6592 20.6401 21.9778 18.6667C23.2963 16.6932 24.0001 14.3731 24 11.9997C23.9965 8.81827 22.7311 5.76815 20.4815 3.51854C18.2318 1.26892 15.1817 0.00354075 12.0003 3.68375e-09ZM12.0003 23.2015C9.78485 23.2016 7.61913 22.5447 5.77702 21.3139C3.9349 20.0831 2.49913 18.3337 1.65126 16.2869C0.803387 14.2401 0.5815 11.9879 1.01366 9.81498C1.44581 7.64209 2.5126 5.64613 4.07912 4.07953C5.64564 2.51293 7.64153 1.44603 9.8144 1.01376C11.9873 0.581493 14.2395 0.803257 16.2864 1.65102C18.3332 2.49878 20.0827 3.93446 21.3136 5.77651C22.5445 7.61856 23.2015 9.78425 23.2015 11.9997C23.1982 14.9695 22.0171 17.8167 19.9171 19.9167C17.8172 22.0167 14.9701 23.1981 12.0003 23.2015Z" fill="#444444"/>
<path d="M14.9749 15.5977C14.3222 15.5977 13.9236 15.2329 13.7877 14.5143C14.1745 14.1577 14.5003 13.7259 14.7411 13.244C15.4764 11.7759 15.2366 11.7275 15.4359 11.6178L15.4353 11.6166C16.002 11.3537 15.8121 10.6978 15.8468 10.5497C15.8468 10.2144 15.7851 10.0941 15.6152 9.99611C15.8732 9.2567 15.8196 8.37639 15.456 7.53489C14.4219 5.14164 11.1542 3.93217 9.97893 6.19014C9.45862 6.15086 8.68687 6.34726 8.42231 7.32836C8.15577 8.31667 8.28487 9.5237 8.35181 9.99207C8.19356 10.1197 8.06671 10.3266 8.06671 10.5526C8.10224 10.7037 7.91296 11.3546 8.47818 11.6168L8.47752 11.6181C8.67796 11.7279 8.85637 13.3434 10.1259 14.5146C9.99009 15.2331 9.59146 15.5978 8.93887 15.5978C6.50962 15.5978 5.34749 16.975 5.47874 18.6624C5.49599 19.0411 6.07021 19.0028 6.03937 18.6172C6.02624 18.4524 5.99081 17.5977 6.58359 16.9558C6.93609 16.5741 7.4489 16.3292 8.11199 16.2224C8.4628 16.6152 9.6644 17.7354 11.9569 17.7354C14.2493 17.7354 15.451 16.6152 15.8017 16.2224C16.4648 16.3292 16.9776 16.5741 17.3301 16.9558C17.9229 17.5977 17.8874 18.4524 17.8744 18.6172C17.8436 19.0028 18.4177 19.0411 18.435 18.6624C18.5607 17.0467 17.488 15.5977 14.9749 15.5977ZM8.9654 7.47479C9.12918 6.86748 9.61359 6.66423 10.0797 6.77289C10.2221 6.80795 10.3676 6.72761 10.4138 6.58839C10.9974 4.83076 13.9353 5.4331 14.9397 7.75801C15.2005 8.36167 15.276 8.98192 15.1638 9.52623C14.9706 9.25661 14.711 8.89689 14.4427 8.5352C13.823 7.69932 12.7113 7.39923 11.7996 7.82157C11.6256 7.90211 11.436 7.89967 11.2791 7.81492C10.6993 7.5017 10.1525 7.48876 9.69768 7.77732C9.31687 8.01948 8.94946 8.63814 8.96849 9.30245C8.97177 9.41842 8.94027 9.52286 8.87287 9.61717C8.81652 9.08467 8.7704 8.1977 8.9654 7.47479ZM9.67537 12.9921C8.91862 11.4811 9.24327 11.3964 8.74799 11.1249C8.69024 11.0933 8.62912 11.0447 8.62912 10.9801C8.62912 10.3734 8.59987 10.5139 8.81268 10.3748C8.82131 10.365 9.55227 10.0449 9.53062 9.28651C9.51356 8.68876 9.95831 7.74095 11.0117 8.30992C11.3261 8.47979 11.6994 8.48786 12.0359 8.33204C12.707 8.02126 13.5291 8.24757 13.991 8.87026C15.367 10.726 14.9059 10.2512 15.2839 10.4562C15.2848 10.4988 15.2844 10.6003 15.2844 10.9801C15.2844 11.1457 14.8822 11.1546 14.7809 11.6442C14.7233 11.9272 14.5256 12.4184 14.2382 12.9923C13.9651 13.5384 13.5694 14.0113 13.0937 14.3597C12.799 14.5756 12.735 14.5749 12.2363 14.5697C11.1963 14.5588 11.1968 14.6359 10.82 14.3596C10.3443 14.0113 9.94856 13.5384 9.67537 12.9921ZM11.9568 17.1729C10.3566 17.1729 9.36159 16.58 8.85834 16.1614C9.79921 16.1501 10.359 15.7171 10.609 14.8975C10.974 15.1368 11.1971 15.1373 11.6829 15.1321C12.6233 15.1222 12.8501 15.1968 13.3044 14.8976C13.5509 15.7053 14.1417 16.1601 14.9748 16.1601C15.0004 16.1601 15.0251 16.1609 15.0503 16.1613C14.5432 16.5795 13.5441 17.1729 11.9568 17.1729Z" fill="#444444"/>
</svg>
