<svg width="24" height="24" viewBox="0 0 24 24" fill="none" xmlns="http://www.w3.org/2000/svg">
<path d="M12.0003 3.68373e-09C9.6269 -5.87912e-05 7.30678 0.703684 5.33335 2.02224C3.35991 3.34079 1.8218 5.21493 0.913508 7.40765C0.00521954 9.60038 -0.232446 12.0132 0.230567 14.341C0.693581 16.6688 1.83648 18.807 3.51472 20.4853C5.19297 22.1635 7.33119 23.3064 9.65899 23.7694C11.9868 24.2324 14.3996 23.9948 16.5923 23.0865C18.7851 22.1782 20.6592 20.6401 21.9778 18.6667C23.2963 16.6932 24.0001 14.3731 24 11.9997C23.9965 8.81827 22.7311 5.76815 20.4815 3.51854C18.2318 1.26892 15.1817 0.00354075 12.0003 3.68373e-09ZM12.0003 23.2015C9.78485 23.2016 7.61913 22.5447 5.77702 21.3139C3.9349 20.0831 2.49913 18.3337 1.65126 16.2869C0.803387 14.2401 0.5815 11.9879 1.01366 9.81498C1.44581 7.64209 2.5126 5.64613 4.07912 4.07953C5.64564 2.51293 7.64153 1.44603 9.8144 1.01376C11.9873 0.581493 14.2395 0.803257 16.2864 1.65102C18.3332 2.49878 20.0827 3.93446 21.3136 5.77651C22.5445 7.61856 23.2015 9.78425 23.2015 11.9997C23.1982 14.9695 22.0171 17.8167 19.9171 19.9167C17.8172 22.0167 14.9701 23.1981 12.0003 23.2015Z" fill="#444444"/>
<path d="M12.0003 3.68373e-09C9.6269 -5.87912e-05 7.30678 0.703684 5.33335 2.02224C3.35991 3.34079 1.8218 5.21493 0.913508 7.40765C0.00521954 9.60038 -0.232446 12.0132 0.230567 14.341C0.693581 16.6688 1.83648 18.807 3.51472 20.4853C5.19297 22.1635 7.33119 23.3064 9.65899 23.7694C11.9868 24.2324 14.3996 23.9948 16.5923 23.0865C18.7851 22.1782 20.6592 20.6401 21.9778 18.6667C23.2963 16.6932 24.0001 14.3731 24 11.9997C23.9965 8.81827 22.7311 5.76815 20.4815 3.51854C18.2318 1.26892 15.1817 0.00354075 12.0003 3.68373e-09ZM12.0003 23.2015C9.78485 23.2016 7.61913 22.5447 5.77702 21.3139C3.9349 20.0831 2.49913 18.3337 1.65126 16.2869C0.803387 14.2401 0.5815 11.9879 1.01366 9.81498C1.44581 7.64209 2.5126 5.64613 4.07912 4.07953C5.64564 2.51293 7.64153 1.44603 9.8144 1.01376C11.9873 0.581493 14.2395 0.803257 16.2864 1.65102C18.3332 2.49878 20.0827 3.93446 21.3136 5.77651C22.5445 7.61856 23.2015 9.78425 23.2015 11.9997C23.1982 14.9695 22.0171 17.8167 19.9171 19.9167C17.8172 22.0167 14.9701 23.1981 12.0003 23.2015Z" fill="#444444"/>
<path d="M14.5 6.3892V6.6011L14.6997 6.67194C15.8645 7.08509 16.7 8.19739 16.7 9.5C16.7 10.2675 16.4106 10.9682 15.9343 11.4998L15.7549 11.7L15.9343 11.9002C16.4106 12.4318 16.7 13.1325 16.7 13.9C16.7 15.2026 15.8645 16.315 14.6997 16.7281L14.5 16.7989V17.0108V18.3C14.5 18.7418 14.1418 19.1 13.7 19.1C13.2582 19.1 12.9 18.7418 12.9 18.3V17.2V16.9H12.6H10.4H10.1V17.2V18.3C10.1 18.7418 9.74184 19.1 9.3 19.1C8.85816 19.1 8.5 18.7418 8.5 18.3V17.2V16.9H8.2H7.1C6.65816 16.9 6.3 16.5418 6.3 16.1C6.3 15.6582 6.65816 15.3 7.1 15.3H8.2H8.5V15V8.4V8.1H8.2H7.1C6.65816 8.1 6.3 7.74184 6.3 7.3C6.3 6.85816 6.65816 6.5 7.1 6.5H8.2H8.5V6.2V5.1C8.5 4.65816 8.85816 4.3 9.3 4.3C9.74184 4.3 10.1 4.65816 10.1 5.1V6.2V6.5H10.4H12.6H12.9V6.2V5.1C12.9 4.65816 13.2582 4.3 13.7 4.3C14.1418 4.3 14.5 4.65816 14.5 5.1V6.3892ZM10.1 15V15.3H10.4H13.7C14.4722 15.3 15.1 14.6722 15.1 13.9C15.1 13.1278 14.4722 12.5 13.7 12.5H10.4H10.1V12.8V15ZM10.1 10.6V10.9H10.4H13.7C14.4722 10.9 15.1 10.2722 15.1 9.5C15.1 8.72777 14.4722 8.1 13.7 8.1H10.4H10.1V8.4V10.6Z" fill="#444444" stroke="white" stroke-width="0.6"/>
</svg>
