<svg width="24" height="24" viewBox="0 0 24 24" fill="none" xmlns="http://www.w3.org/2000/svg">
<path d="M17.2327 15.431C17.1112 15.3036 16.9542 15.2165 16.783 15.1806V14.8438V14.7687H16.708H16.2498H16.1748V14.8438V15.1805C16.0034 15.2164 15.8464 15.3034 15.7248 15.4308C15.5879 15.5742 15.5043 15.7602 15.4878 15.9577L15.4871 15.9651L15.488 15.9724C15.5151 16.2113 15.6347 16.4301 15.821 16.5819C16.0043 16.7313 16.2378 16.8044 16.4733 16.7863C16.5261 16.7991 16.5746 16.8257 16.6138 16.8635C16.6555 16.9036 16.6849 16.9548 16.6987 17.011C16.7125 17.0672 16.71 17.1262 16.6916 17.1811C16.6732 17.236 16.6397 17.2845 16.5948 17.3211C16.5499 17.3577 16.4956 17.3808 16.4382 17.3877C16.3807 17.3947 16.3224 17.3852 16.2701 17.3604C16.2179 17.3356 16.1737 17.2965 16.1427 17.2475C16.1118 17.1986 16.0953 17.142 16.0953 17.0841L16.0952 17.0091H16.0203H15.5625H15.481L15.4878 17.0904C15.5043 17.2879 15.5879 17.4737 15.7246 17.6171C15.8461 17.7445 16.0031 17.8315 16.1744 17.8675V18.2043V18.2793H16.2494H16.7075H16.7825V18.2043V17.8675C16.9538 17.8316 17.1108 17.7446 17.2323 17.6172C17.3691 17.4738 17.4527 17.2879 17.4691 17.0904L17.4697 17.083L17.4689 17.0757C17.4419 16.8368 17.3224 16.6179 17.136 16.466C16.9527 16.3166 16.7191 16.2436 16.4836 16.2618C16.4308 16.249 16.3823 16.2224 16.3431 16.1846C16.3014 16.1444 16.2719 16.0933 16.2582 16.0371C16.2444 15.9808 16.2469 15.9219 16.2653 15.867C16.2836 15.8121 16.3172 15.7636 16.3621 15.727C16.407 15.6904 16.4613 15.6673 16.5187 15.6603C16.5762 15.6534 16.6344 15.6629 16.6867 15.6877C16.739 15.7125 16.7832 15.7516 16.8142 15.8005C16.8451 15.8494 16.8616 15.9061 16.8616 15.964L16.8617 16.0389H16.9366H17.3948H17.4764L17.4696 15.9577C17.453 15.7602 17.3694 15.5744 17.2327 15.431Z" fill="#444444" stroke="#444444" stroke-width="0.15"/>
<path d="M19.5303 8.40202H19.5304L19.5302 8.39795C19.5192 8.19555 19.4287 8.0057 19.2783 7.86977C19.1284 7.73423 18.9311 7.66325 18.7293 7.67216H14.9146C14.8134 7.17598 14.5427 6.72962 14.1479 6.41043C13.7371 6.07828 13.2197 5.90638 12.6918 5.9266H10.763C10.235 5.90642 9.71755 6.07843 9.30669 6.41076C8.91186 6.73012 8.64124 7.17666 8.54029 7.67301H4.72603C4.52433 7.66409 4.3272 7.73494 4.17731 7.87028C4.02698 8.00601 3.93634 8.19563 3.92512 8.39786L3.925 8.39785V8.40201V16.2581H3.92489L3.92511 16.2622C3.9361 16.4646 4.02664 16.6544 4.17699 16.7904C4.32691 16.9259 4.52417 16.9969 4.72603 16.988H13.6439C13.8057 17.619 14.1751 18.1781 14.6935 18.5745C15.2274 18.9828 15.8863 19.1933 16.558 19.1702C18.1892 19.1696 19.5295 17.9687 19.5295 16.4767C19.5295 16.4416 19.5264 16.4039 19.5236 16.3705C19.5227 16.3591 19.5218 16.3482 19.5211 16.3381C19.5257 16.3127 19.5285 16.287 19.5294 16.2612L19.5295 16.2612V16.2585L19.5303 8.40202ZM10.7588 6.51241L10.7588 6.51246H10.7616H12.6933V6.51252L12.696 6.51241C13.0669 6.49878 13.4306 6.61674 13.7229 6.84544C13.9907 7.055 14.1826 7.34517 14.2713 7.67174H9.18355C9.27222 7.34517 9.4642 7.055 9.732 6.84544C10.0243 6.61674 10.388 6.49878 10.7588 6.51241ZM18.8916 8.957C18.8873 9.05712 18.8844 9.1648 18.8872 9.2778L17.7593 8.25845H18.7321C18.7747 8.25849 18.8033 8.26593 18.8229 8.27603C18.8418 8.28573 18.8564 8.29987 18.8684 8.32067C18.8947 8.36649 18.9069 8.44181 18.9076 8.55603C18.9081 8.6332 18.9036 8.71961 18.8985 8.81657C18.8962 8.86111 18.8938 8.90788 18.8916 8.957ZM4.55929 8.40201L4.55929 8.40176C4.55917 8.36632 4.56646 8.34362 4.57592 8.32819C4.58526 8.31294 4.60013 8.29924 4.62462 8.28738C4.67752 8.26176 4.76259 8.25044 4.88515 8.2495C4.97004 8.24884 5.06531 8.25297 5.17114 8.25756C5.21594 8.2595 5.26264 8.26152 5.31124 8.26329C5.41092 8.26694 5.51707 8.26945 5.62747 8.26767L4.55929 9.23404L4.55929 8.40201ZM14.2319 16.2431L14.232 16.2422C14.3717 15.0813 15.3578 14.4409 16.4027 14.3799C17.4473 14.3189 18.5196 14.8392 18.8276 15.9713L18.834 15.9984L18.834 15.9984L18.8345 16.0002C18.8755 16.155 18.8962 16.3144 18.896 16.4745C18.8635 17.0626 18.6001 17.6141 18.1631 18.0091C17.7257 18.4045 17.1496 18.611 16.5606 18.5836L16.558 18.6404V18.5835C15.1457 18.5835 14.0705 17.4586 14.2319 16.2431ZM4.72434 16.4012C4.64467 16.4012 4.61044 16.376 4.59003 16.3432C4.56453 16.3023 4.55167 16.2353 4.54981 16.135C4.54845 16.062 4.55277 15.9805 4.55757 15.8899C4.55926 15.8579 4.56102 15.8247 4.56261 15.7904C4.56742 15.6863 4.57045 15.5742 4.56401 15.4597H7.24188C7.28156 15.4634 7.32159 15.459 7.35954 15.4467C7.39887 15.434 7.43508 15.4132 7.46583 15.3856C7.49657 15.358 7.52116 15.3242 7.538 15.2865C7.55483 15.2487 7.56353 15.2079 7.56353 15.1665C7.56353 15.1252 7.55483 15.0844 7.538 15.0466C7.52116 15.0089 7.49658 14.9751 7.46583 14.9475C7.43508 14.9199 7.39887 14.8991 7.35954 14.8864C7.32159 14.8741 7.28156 14.8697 7.24188 14.8734H4.55803V14.3686H7.24188C7.28156 14.3722 7.32159 14.3678 7.35954 14.3556C7.39887 14.3429 7.43508 14.3221 7.46583 14.2945C7.49657 14.2668 7.52116 14.2331 7.538 14.1953C7.55483 14.1576 7.56353 14.1167 7.56353 14.0754C7.56353 14.0341 7.55483 13.9932 7.538 13.9555C7.52116 13.9177 7.49658 13.884 7.46583 13.8564C7.43508 13.8288 7.39887 13.8079 7.35954 13.7952L7.33651 13.8666L7.35954 13.7952C7.32159 13.783 7.28156 13.7786 7.24187 13.7823H4.55803V10.0489C4.56434 10.0445 4.57158 10.0391 4.5801 10.0321C4.60782 10.0094 4.65875 9.96341 4.77167 9.86081C4.79407 9.84045 4.81899 9.8178 4.84674 9.79257C5.09902 9.56319 5.58512 9.12122 6.54373 8.25887H16.8515C17.6989 9.01679 18.1769 9.45418 18.4553 9.70901C18.515 9.76365 18.5656 9.8099 18.6086 9.84911C18.7299 9.95965 18.795 10.0175 18.8384 10.049C18.8597 10.0645 18.8781 10.0755 18.8973 10.0836V14.8108C18.0842 13.8569 16.8063 13.6082 15.7124 13.8996C14.5766 14.202 13.621 15.0925 13.5858 16.4012H4.72434Z" fill="#444444" stroke="#444444" stroke-width="0.15"/>
<rect x="0.375" y="0.375" width="23.25" height="23.25" rx="11.625" stroke="#444444" stroke-width="0.75"/>
</svg>
