<svg width="29" height="28" viewBox="0 0 29 28" fill="none" xmlns="http://www.w3.org/2000/svg">
<path d="M14.5 0C6.76257 0 0.5 6.26151 0.5 14C0.5 16.4556 1.14044 18.8539 2.3566 20.9692L0.552765 26.5709C0.426941 26.9614 0.530334 27.3895 0.820435 27.6796C1.10776 27.9669 1.53479 28.0741 1.92914 27.9472L7.53076 26.1434C9.64606 27.3596 12.0444 28 14.5 28C22.2374 28 28.5 21.7385 28.5 14C28.5 6.26257 22.2385 0 14.5 0ZM14.5 25.8125C12.282 25.8125 10.1199 25.1936 8.24747 24.0228C7.97809 23.8544 7.64355 23.8089 7.33231 23.9091L3.28864 25.2114L4.59088 21.1677C4.68958 20.8609 4.64792 20.526 4.47702 20.2525C3.30637 18.3801 2.6875 16.218 2.6875 14C2.6875 7.48663 7.98663 2.1875 14.5 2.1875C21.0134 2.1875 26.3125 7.48663 26.3125 14C26.3125 20.5134 21.0134 25.8125 14.5 25.8125ZM15.8672 14C15.8672 14.7549 15.2552 15.3672 14.5 15.3672C13.7448 15.3672 13.1328 14.7549 13.1328 14C13.1328 13.2448 13.7448 12.6328 14.5 12.6328C15.2552 12.6328 15.8672 13.2448 15.8672 14ZM21.3359 14C21.3359 14.7549 20.7239 15.3672 19.9688 15.3672C19.2136 15.3672 18.6016 14.7549 18.6016 14C18.6016 13.2448 19.2136 12.6328 19.9688 12.6328C20.7239 12.6328 21.3359 13.2448 21.3359 14ZM10.3984 14C10.3984 14.7549 9.78641 15.3672 9.03125 15.3672C8.27631 15.3672 7.66406 14.7549 7.66406 14C7.66406 13.2448 8.27631 12.6328 9.03125 12.6328C9.78641 12.6328 10.3984 13.2448 10.3984 14Z" fill="black"/>
</svg>
