<svg width="31" height="24" viewBox="0 0 31 24" fill="none" xmlns="http://www.w3.org/2000/svg">
<g clip-path="url(#clip0_547_34188)">
<path d="M18.0243 16.2859C19.7269 15.613 21.231 14.5193 22.3959 13.107C23.4305 11.8818 23.998 10.3301 23.998 8.72663C23.998 7.12315 23.4305 5.57141 22.3959 4.3463C21.231 2.934 19.7269 1.84026 18.0243 1.16737C16.1151 0.375927 14.0657 -0.0218741 11.9991 -0.00218674C9.93265 -0.022514 7.88334 0.374473 5.97396 1.16499C4.27134 1.83788 2.76721 2.93162 1.60226 4.34392C0.574151 5.57381 0.00748416 7.12394 0 8.72693C0.00461446 10.0933 0.427051 11.4257 1.21062 12.5451C2.07446 13.7906 3.21118 14.8225 4.53419 15.5621C4.4207 15.8351 4.30424 16.0851 4.18481 16.3121C4.06282 16.5427 3.92018 16.7619 3.75865 16.9668C3.59398 17.1771 3.46621 17.3418 3.37534 17.4608C3.28448 17.5798 3.13667 17.7475 2.93192 17.9637C2.72718 18.1796 2.59643 18.3216 2.53969 18.3899C2.53969 18.3786 2.51707 18.4042 2.47124 18.4667C2.42541 18.5292 2.40042 18.5571 2.39446 18.5524C2.38851 18.5476 2.3659 18.5744 2.32602 18.6369L2.2665 18.7309L2.22364 18.8161C2.20733 18.8483 2.1959 18.8828 2.18972 18.9184C2.18387 18.955 2.18108 18.9921 2.18139 19.0291C2.18103 19.0667 2.18686 19.1041 2.19865 19.1398C2.21724 19.2791 2.28705 19.4064 2.39446 19.497C2.49052 19.5833 2.6147 19.6317 2.74384 19.6333H2.79741C3.29047 19.568 3.77979 19.477 4.26337 19.3607C5.963 18.9293 7.56904 18.1897 9.00171 17.1787C9.99168 17.3575 10.9955 17.4487 12.0015 17.4513C14.0671 17.4724 16.1156 17.076 18.0243 16.2859Z" fill="url(#paint0_linear_547_34188)"/>
<path d="M29.3329 16.9163C30.132 15.7796 30.5551 14.4212 30.5428 13.0318C30.5305 11.6424 30.0835 10.2917 29.2645 9.16927C28.3552 7.90269 27.1651 6.86375 25.7874 6.13379C26.1412 7.27742 26.2572 8.48137 26.1282 9.67152C25.9992 10.8617 25.628 12.0128 25.0374 13.0541C24.2194 14.4804 23.1027 15.713 21.7639 16.6675C20.3969 17.6459 18.8761 18.389 17.2642 18.8662C15.5565 19.3813 13.7817 19.6399 11.9979 19.6334C11.6571 19.6334 11.1571 19.6108 10.498 19.5655C12.8965 21.0982 15.6971 21.8814 18.5427 21.8154C19.5487 21.8128 20.5525 21.7216 21.5425 21.5428C23.3749 22.863 25.507 23.7065 27.7468 23.9973C27.8826 24.0089 28.0175 23.9661 28.1217 23.8783C28.2377 23.7838 28.3161 23.651 28.3431 23.5039C28.3378 23.4355 28.3431 23.398 28.3604 23.3926C28.3777 23.3873 28.3741 23.3504 28.3521 23.2819C28.33 23.2135 28.3181 23.1795 28.3181 23.1795L28.2759 23.0944C28.2582 23.062 28.2383 23.0307 28.2164 23.001C28.1957 22.971 28.1728 22.9425 28.1479 22.9159C28.1313 22.8992 28.1057 22.8706 28.0717 22.8308C28.0378 22.7909 28.0122 22.7653 28.0033 22.754C27.9465 22.6857 27.816 22.5437 27.6116 22.3278C27.4073 22.112 27.2597 21.9445 27.1688 21.8255C27.078 21.7064 26.9502 21.5416 26.7855 21.3309C26.6239 21.126 26.4813 20.9068 26.3594 20.6762C26.2403 20.4488 26.1239 20.1988 26.01 19.9262C27.3312 19.1874 28.4674 18.1582 29.3329 16.9163Z" fill="url(#paint1_linear_547_34188)"/>
</g>
<defs>
<linearGradient id="paint0_linear_547_34188" x1="11.999" y1="-0.00292969" x2="11.999" y2="19.6333" gradientUnits="userSpaceOnUse">
<stop stop-color="#FF0093"/>
<stop offset="0.423" stop-color="#FD657C"/>
<stop offset="1" stop-color="#FAD163"/>
</linearGradient>
<linearGradient id="paint1_linear_547_34188" x1="20.5206" y1="6.13379" x2="20.5206" y2="23.9992" gradientUnits="userSpaceOnUse">
<stop stop-color="#FF0093"/>
<stop offset="0.423" stop-color="#FD657C"/>
<stop offset="1" stop-color="#FAD163"/>
</linearGradient>
<clipPath id="clip0_547_34188">
<rect width="30.543" height="24" fill="white"/>
</clipPath>
</defs>
</svg>
