<svg width="20" height="20" viewBox="0 0 20 20" fill="none" xmlns="http://www.w3.org/2000/svg">
<g clip-path="url(#clip0_413_16855)">
<path d="M20 9.99979C20 11.9776 19.4135 13.9111 18.3147 15.5556C17.2158 17.2001 15.654 18.4819 13.8267 19.2387C11.9994 19.9956 9.98875 20.1937 8.04891 19.8078C6.10906 19.4219 4.32721 18.4695 2.92866 17.071C1.53011 15.6724 0.577688 13.8906 0.191829 11.9507C-0.19403 10.0109 0.00400804 8.00019 0.760895 6.1729C1.51778 4.34561 2.79953 2.7838 4.44405 1.68497C6.08856 0.586134 8.02199 -0.000365164 9.99984 -0.000365337C12.652 -0.000365569 15.1956 1.05322 17.071 2.92861C18.9464 4.80401 20 7.34759 20 9.99979V9.99979Z" fill="#FF0093"/>
<path d="M10.0637 13.6825L13.4985 7.63166C13.5505 7.54002 13.5152 7.50195 13.4197 7.5464L10.0751 9.10106C9.96425 9.14543 9.84041 9.14453 9.73021 9.09855L6.51808 7.54868C6.42325 7.50309 6.38929 7.5407 6.44058 7.63166L9.87564 13.6823C9.92739 13.7737 10.012 13.7739 10.0637 13.6825Z" fill="white"/>
</g>
<defs>
<clipPath id="clip0_413_16855">
<rect width="20" height="20" fill="white" transform="translate(20 20) rotate(180)"/>
</clipPath>
</defs>
</svg>
