<svg width="24" height="24" viewBox="0 0 24 24" fill="none" xmlns="http://www.w3.org/2000/svg">
<path d="M12.0003 3.68373e-09C9.6269 -5.87912e-05 7.30678 0.703684 5.33335 2.02224C3.35991 3.34079 1.8218 5.21493 0.913508 7.40765C0.00521954 9.60038 -0.232446 12.0132 0.230567 14.341C0.693581 16.6688 1.83648 18.807 3.51472 20.4853C5.19297 22.1635 7.33119 23.3064 9.65899 23.7694C11.9868 24.2324 14.3996 23.9948 16.5923 23.0865C18.7851 22.1782 20.6592 20.6401 21.9778 18.6667C23.2963 16.6932 24.0001 14.3731 24 11.9997C23.9965 8.81827 22.7311 5.76815 20.4815 3.51854C18.2318 1.26892 15.1817 0.00354075 12.0003 3.68373e-09ZM12.0003 23.2015C9.78485 23.2016 7.61913 22.5447 5.77702 21.3139C3.9349 20.0831 2.49913 18.3337 1.65126 16.2869C0.803387 14.2401 0.5815 11.9879 1.01366 9.81498C1.44581 7.64209 2.5126 5.64613 4.07912 4.07953C5.64564 2.51293 7.64153 1.44603 9.8144 1.01376C11.9873 0.581493 14.2395 0.803257 16.2864 1.65102C18.3332 2.49878 20.0827 3.93446 21.3136 5.77651C22.5445 7.61856 23.2015 9.78425 23.2015 11.9997C23.1982 14.9695 22.0171 17.8167 19.9171 19.9167C17.8172 22.0167 14.9701 23.1981 12.0003 23.2015Z" fill="#444444"/>
<path d="M12.0003 3.68375e-09C9.6269 -5.87912e-05 7.30678 0.703685 5.33335 2.02224C3.35991 3.34079 1.8218 5.21493 0.913508 7.40765C0.00521958 9.60038 -0.232446 12.0132 0.230567 14.341C0.693581 16.6688 1.83648 18.807 3.51472 20.4853C5.19297 22.1635 7.33119 23.3064 9.65899 23.7694C11.9868 24.2324 14.3996 23.9948 16.5923 23.0865C18.7851 22.1782 20.6592 20.6401 21.9778 18.6667C23.2963 16.6932 24.0001 14.3731 24 11.9997C23.9965 8.81827 22.7311 5.76815 20.4815 3.51854C18.2318 1.26892 15.1817 0.00354075 12.0003 3.68375e-09ZM12.0003 23.2015C9.78485 23.2016 7.61913 22.5447 5.77702 21.3139C3.9349 20.0831 2.49913 18.3337 1.65126 16.2869C0.803387 14.2401 0.5815 11.9879 1.01366 9.81498C1.44581 7.64209 2.5126 5.64613 4.07912 4.07953C5.64564 2.51293 7.64153 1.44603 9.8144 1.01376C11.9873 0.581493 14.2395 0.803257 16.2864 1.65102C18.3332 2.49878 20.0827 3.93446 21.3136 5.77651C22.5445 7.61856 23.2015 9.78425 23.2015 11.9997C23.1982 14.9695 22.0171 17.8167 19.9171 19.9167C17.8172 22.0167 14.9701 23.1981 12.0003 23.2015Z" fill="#444444"/>
<path d="M11 10V14.0606L14.1583 12.0303L11 10Z" fill="#444444"/>
<path d="M12 17C9.44883 17 7.00591 15.5394 5.2986 12.9922C5.10451 12.7037 5 12.3564 5 12C5 11.6436 5.10451 11.2963 5.2986 11.0078C7.00591 8.46056 9.44883 7 12 7C14.5512 7 16.9941 8.46056 18.7014 11.0078C18.8955 11.2963 19 11.6436 19 12C19 12.3564 18.8955 12.7037 18.7014 12.9922C16.9941 15.5394 14.5512 17 12 17ZM6.13215 12.3411C7.66729 14.6289 9.75091 15.8889 12 15.8889C14.2491 15.8889 16.3327 14.6289 17.8678 12.3411C17.9346 12.2418 17.9706 12.1223 17.9706 11.9997C17.9706 11.8771 17.9346 11.7576 17.8678 11.6583C16.3327 9.37111 14.2491 8.11111 12 8.11111C9.75091 8.11111 7.66729 9.37111 6.13215 11.6589C6.06537 11.7582 6.02941 11.8777 6.02941 12.0003C6.02941 12.1229 6.06537 12.2424 6.13215 12.3417V12.3411Z" fill="#444444"/>
</svg>
