<svg width="20" height="20" viewBox="0 0 20 20" fill="none" xmlns="http://www.w3.org/2000/svg">
<path d="M10.0026 5.0026C13.1609 5.0026 15.9776 6.7776 17.3526 9.58594C15.9776 12.3943 13.1609 14.1693 10.0026 14.1693C6.84427 14.1693 4.0276 12.3943 2.6526 9.58594C4.0276 6.7776 6.84427 5.0026 10.0026 5.0026ZM10.0026 3.33594C5.83594 3.33594 2.2776 5.9276 0.835938 9.58594C2.2776 13.2443 5.83594 15.8359 10.0026 15.8359C14.1693 15.8359 17.7276 13.2443 19.1693 9.58594C17.7276 5.9276 14.1693 3.33594 10.0026 3.33594ZM10.0026 9.16927C11.1526 9.16927 12.0859 10.1026 12.0859 11.2526C12.0859 12.4026 11.1526 11.6693 10.0026 11.6693C8.8526 11.6693 7.91927 10.7359 7.91927 9.58594C7.91927 8.43594 8.8526 7.5026 10.0026 7.5026M10.0026 5.83594C7.93594 5.83594 6.2526 7.51927 6.2526 9.58594C6.2526 11.6526 7.93594 13.3359 10.0026 13.3359C12.0693 13.3359 13.7526 11.6526 13.7526 9.58594C13.7526 7.51927 12.0693 5.83594 10.0026 5.83594Z" fill="#707070"/>
</svg>
