<svg width="24" height="24" viewBox="0 0 24 24" fill="none" xmlns="http://www.w3.org/2000/svg">
<path fill-rule="evenodd" clip-rule="evenodd" d="M2.46014 16.8159C2.23856 16.5861 2.1867 16.2413 2.33091 15.9565L3.03241 14.5711C4.69268 11.2923 8.05563 9.22563 11.7308 9.22563H12.0757C12.1009 8.67925 12.1334 8.13312 12.1731 7.58739L12.241 6.65676C12.2961 5.89994 13.14 5.47687 13.7795 5.88545C15.8771 7.22581 17.7007 8.9529 19.153 10.9747L19.6091 11.6096C19.797 11.8711 19.797 12.2233 19.6091 12.4847L19.153 13.1197C17.7007 15.1414 15.8771 16.8685 13.7795 18.2089C13.14 18.6175 12.2961 18.1944 12.241 17.4376L12.1731 16.5069C12.1256 15.8552 12.0886 15.2029 12.0619 14.5503C9.91207 14.4882 7.76486 14.9222 5.7915 15.8329L3.31431 16.9762C3.02447 17.11 2.68173 17.0457 2.46014 16.8159ZM4.67839 14.6946L5.16291 14.471C7.57405 13.3582 10.2196 12.8884 12.8447 13.09C13.227 13.1194 13.5256 13.4324 13.5369 13.8156C13.5624 14.677 13.6065 15.5379 13.6692 16.3979L13.6746 16.4723C15.3181 15.3107 16.7583 13.8823 17.9348 12.2445L18.0766 12.0472L17.9348 11.8498C16.7583 10.212 15.3181 8.78365 13.6746 7.62199L13.6692 7.69645C13.6132 8.46406 13.5721 9.23247 13.5458 10.0013C13.532 10.4053 13.2005 10.7256 12.7962 10.7256L11.7308 10.7256C8.83352 10.7256 6.16555 12.2435 4.67839 14.6946Z" fill="black"/>
</svg>
