<svg width="20" height="21" viewBox="0 0 20 21" fill="none" xmlns="http://www.w3.org/2000/svg">
<path d="M0 10.4998C0 8.52199 0.586499 6.58856 1.68533 4.94405C2.78416 3.29953 4.34597 2.01778 6.17327 1.26089C8.00056 0.504007 10.0113 0.305969 11.9511 0.691828C13.8909 1.07769 15.6728 2.03011 17.0713 3.42866C18.4699 4.8272 19.4223 6.60906 19.8082 8.5489C20.194 10.4887 19.996 12.4994 19.2391 14.3267C18.4822 16.154 17.2005 17.7158 15.556 18.8147C13.9114 19.9135 11.978 20.5 10.0002 20.5C7.34795 20.5 4.80437 19.4464 2.92898 17.571C1.05359 15.6956 0 13.152 0 10.4998H0Z" fill="#1CEA2C"/>
<path d="M9.93532 6.81663L6.50048 12.8675C6.44851 12.9591 6.48384 12.9972 6.57936 12.9527L9.92392 11.3981C10.0348 11.3537 10.1586 11.3546 10.2688 11.4006L13.4809 12.9505C13.5758 12.9961 13.6097 12.9584 13.5584 12.8675L10.1234 6.81686C10.0716 6.72545 9.98707 6.72522 9.93532 6.81663Z" fill="white"/>
</svg>
