<svg width="24" height="24" viewBox="0 0 24 24" fill="none" xmlns="http://www.w3.org/2000/svg">
<g clip-path="url(#clip0_1090_56946)">
<path d="M12.0003 3.68373e-09C9.6269 -5.87912e-05 7.30678 0.703684 5.33335 2.02224C3.35991 3.34079 1.8218 5.21493 0.913508 7.40765C0.00521954 9.60038 -0.232446 12.0132 0.230567 14.341C0.693581 16.6688 1.83648 18.807 3.51472 20.4853C5.19297 22.1635 7.33119 23.3064 9.65899 23.7694C11.9868 24.2324 14.3996 23.9948 16.5923 23.0865C18.7851 22.1782 20.6592 20.6401 21.9778 18.6667C23.2963 16.6932 24.0001 14.3731 24 11.9997C23.9965 8.81827 22.7311 5.76815 20.4815 3.51854C18.2318 1.26892 15.1817 0.00354075 12.0003 3.68373e-09ZM12.0003 23.2015C9.78485 23.2016 7.61913 22.5447 5.77702 21.3139C3.9349 20.0831 2.49913 18.3337 1.65126 16.2869C0.803387 14.2401 0.5815 11.9879 1.01366 9.81498C1.44581 7.64209 2.5126 5.64613 4.07912 4.07953C5.64564 2.51293 7.64153 1.44603 9.8144 1.01376C11.9873 0.581493 14.2395 0.803257 16.2864 1.65102C18.3332 2.49878 20.0827 3.93446 21.3136 5.77651C22.5445 7.61856 23.2015 9.78425 23.2015 11.9997C23.1982 14.9695 22.0171 17.8167 19.9171 19.9167C17.8172 22.0167 14.9701 23.1981 12.0003 23.2015Z" fill="#444444"/>
<path d="M12.0003 3.68375e-09C9.6269 -5.87912e-05 7.30678 0.703685 5.33335 2.02224C3.35991 3.34079 1.8218 5.21493 0.913508 7.40765C0.00521958 9.60038 -0.232446 12.0132 0.230567 14.341C0.693581 16.6688 1.83648 18.807 3.51472 20.4853C5.19297 22.1635 7.33119 23.3064 9.65899 23.7694C11.9868 24.2324 14.3996 23.9948 16.5923 23.0865C18.7851 22.1782 20.6592 20.6401 21.9778 18.6667C23.2963 16.6932 24.0001 14.3731 24 11.9997C23.9965 8.81827 22.7311 5.76815 20.4815 3.51854C18.2318 1.26892 15.1817 0.00354075 12.0003 3.68375e-09ZM12.0003 23.2015C9.78485 23.2016 7.61913 22.5447 5.77702 21.3139C3.9349 20.0831 2.49913 18.3337 1.65126 16.2869C0.803387 14.2401 0.5815 11.9879 1.01366 9.81498C1.44581 7.64209 2.5126 5.64613 4.07912 4.07953C5.64564 2.51293 7.64153 1.44603 9.8144 1.01376C11.9873 0.581493 14.2395 0.803257 16.2864 1.65102C18.3332 2.49878 20.0827 3.93446 21.3136 5.77651C22.5445 7.61856 23.2015 9.78425 23.2015 11.9997C23.1982 14.9695 22.0171 17.8167 19.9171 19.9167C17.8172 22.0167 14.9701 23.1981 12.0003 23.2015Z" fill="#444444"/>
<path d="M17.6509 10.6549C17.6505 10.6546 17.6502 10.6543 17.6499 10.654L12.3464 5.35064C12.1203 5.12449 11.8198 5 11.5001 5C11.1804 5 10.8798 5.12449 10.6537 5.35064L5.35294 10.6513C5.35115 10.6531 5.34927 10.6549 5.34758 10.6567C4.88336 11.1236 4.88416 11.8812 5.34986 12.3469C5.56263 12.5597 5.84354 12.6829 6.144 12.6959C6.1563 12.6971 6.1686 12.6977 6.181 12.6977H6.39227V16.6005C6.39227 17.3729 7.02076 18.0013 7.79316 18.0013H9.86807C10.0785 18.0013 10.249 17.8307 10.249 17.6204V14.5605C10.249 14.2081 10.5357 13.9214 10.8882 13.9214H12.112C12.4644 13.9214 12.7511 14.2081 12.7511 14.5605V17.6204C12.7511 17.8307 12.9216 18.0013 13.132 18.0013H15.2069C15.9794 18.0013 16.6078 17.3729 16.6078 16.6005V12.6977H16.8038C17.1234 12.6977 17.4239 12.5732 17.6502 12.347C18.1164 11.8806 18.1166 11.1216 17.6509 10.6549ZM17.1115 11.8084C17.0292 11.8906 16.9199 11.9359 16.8038 11.9359H16.2269C16.0165 11.9359 15.846 12.1064 15.846 12.3168V16.6005C15.846 16.9529 15.5593 17.2395 15.2069 17.2395H13.5129V14.5605C13.5129 13.7881 12.8845 13.1596 12.112 13.1596H10.8882C10.1156 13.1596 9.48717 13.7881 9.48717 14.5605V17.2395H7.79316C7.44083 17.2395 7.15407 16.9529 7.15407 16.6005V12.3168C7.15407 12.1064 6.98356 11.9359 6.77317 11.9359H6.20619C6.20024 11.9355 6.19439 11.9352 6.18834 11.9351C6.07486 11.9331 5.96843 11.8881 5.88868 11.8083C5.71906 11.6386 5.71906 11.3626 5.88868 11.1929C5.88877 11.1929 5.88877 11.1928 5.88887 11.1927L5.88917 11.1924L11.1925 5.88926C11.2746 5.80703 11.3838 5.7618 11.5001 5.7618C11.6162 5.7618 11.7254 5.80703 11.8077 5.88926L17.1098 11.1913C17.1106 11.1921 17.1115 11.1929 17.1123 11.1937C17.281 11.3636 17.2807 11.639 17.1115 11.8084Z" fill="#444444"/>
</g>
<defs>
<clipPath id="clip0_1090_56946">
<rect width="24" height="24" fill="white"/>
</clipPath>
</defs>
</svg>
