<svg width="13" height="14" viewBox="0 0 13 14" fill="none" xmlns="http://www.w3.org/2000/svg">
<path d="M6.5 3.86328C4.75 3.86328 3.35547 5.28516 3.35547 7.00781C3.35547 8.75781 4.75 10.1523 6.5 10.1523C8.22266 10.1523 9.64453 8.75781 9.64453 7.00781C9.64453 5.28516 8.22266 3.86328 6.5 3.86328ZM6.5 9.05859C5.37891 9.05859 4.44922 8.15625 4.44922 7.00781C4.44922 5.88672 5.35156 4.98438 6.5 4.98438C7.62109 4.98438 8.52344 5.88672 8.52344 7.00781C8.52344 8.15625 7.62109 9.05859 6.5 9.05859ZM10.4922 3.75391C10.4922 3.34375 10.1641 3.01562 9.75391 3.01562C9.34375 3.01562 9.01562 3.34375 9.01562 3.75391C9.01562 4.16406 9.34375 4.49219 9.75391 4.49219C10.1641 4.49219 10.4922 4.16406 10.4922 3.75391ZM12.5703 4.49219C12.5156 3.50781 12.2969 2.63281 11.5859 1.92188C10.875 1.21094 10 0.992188 9.01562 0.9375C8.00391 0.882812 4.96875 0.882812 3.95703 0.9375C2.97266 0.992188 2.125 1.21094 1.38672 1.92188C0.675781 2.63281 0.457031 3.50781 0.402344 4.49219C0.347656 5.50391 0.347656 8.53906 0.402344 9.55078C0.457031 10.5352 0.675781 11.3828 1.38672 12.1211C2.125 12.832 2.97266 13.0508 3.95703 13.1055C4.96875 13.1602 8.00391 13.1602 9.01562 13.1055C10 13.0508 10.875 12.832 11.5859 12.1211C12.2969 11.3828 12.5156 10.5352 12.5703 9.55078C12.625 8.53906 12.625 5.50391 12.5703 4.49219ZM11.2578 10.6172C11.0664 11.1641 10.6289 11.5742 10.1094 11.793C9.28906 12.1211 7.375 12.0391 6.5 12.0391C5.59766 12.0391 3.68359 12.1211 2.89062 11.793C2.34375 11.5742 1.93359 11.1641 1.71484 10.6172C1.38672 9.82422 1.46875 7.91016 1.46875 7.00781C1.46875 6.13281 1.38672 4.21875 1.71484 3.39844C1.93359 2.87891 2.34375 2.46875 2.89062 2.25C3.68359 1.92188 5.59766 2.00391 6.5 2.00391C7.375 2.00391 9.28906 1.92188 10.1094 2.25C10.6289 2.44141 11.0391 2.87891 11.2578 3.39844C11.5859 4.21875 11.5039 6.13281 11.5039 7.00781C11.5039 7.91016 11.5859 9.82422 11.2578 10.6172Z" fill="white"/>
</svg>
