<svg width="24" height="24" viewBox="0 0 24 24" fill="none" xmlns="http://www.w3.org/2000/svg">
<path d="M18.009 11.5047C18.0089 10.2182 17.6274 8.9606 16.9126 7.89094C16.1979 6.82128 15.182 5.98758 13.9934 5.49523C12.8049 5.00289 11.497 4.87401 10.2353 5.12491C8.97347 5.37581 7.81441 5.9952 6.90463 6.90478C6.29887 7.50755 5.81863 8.22445 5.49171 9.01401C5.16479 9.80356 4.99768 10.6501 5.00002 11.5047V14.5841C5.00114 15.4213 5.3342 16.2239 5.92617 16.8158C6.51814 17.4078 7.32071 17.7409 8.15788 17.742C8.20727 17.7421 8.2562 17.7325 8.30186 17.7137C8.34751 17.6949 8.389 17.6672 8.42392 17.6323C8.45884 17.5974 8.48651 17.5559 8.50534 17.5102C8.52417 17.4646 8.53378 17.4156 8.53362 17.3662V11.8056C8.53378 11.7562 8.52417 11.7073 8.50534 11.6616C8.48651 11.616 8.45884 11.5745 8.42392 11.5396C8.389 11.5047 8.34751 11.477 8.30186 11.4582C8.2562 11.4393 8.20727 11.4297 8.15788 11.4299C7.69998 11.4293 7.24748 11.5287 6.83196 11.7211C6.41644 11.9135 6.04791 12.1943 5.7521 12.5438V11.5047C5.74431 10.7443 5.88736 9.98984 6.17297 9.28506C6.45858 8.58028 6.88108 7.93911 7.41604 7.39864C7.951 6.85818 8.58781 6.42913 9.28963 6.13632C9.99145 5.84351 10.7444 5.69274 11.5048 5.69274C12.2653 5.69274 13.0182 5.84351 13.72 6.13632C14.4218 6.42913 15.0586 6.85818 15.5936 7.39864C16.1285 7.93911 16.551 8.58028 16.8367 9.28506C17.1223 9.98984 17.2653 10.7443 17.2575 11.5047C17.2576 11.53 17.2604 11.5553 17.266 11.5801C17.2604 11.6048 17.2576 11.6301 17.2575 11.6554V12.694C16.9617 12.3445 16.5932 12.0637 16.1777 11.8713C15.7621 11.6789 15.3096 11.5795 14.8517 11.5801C14.8024 11.5799 14.7534 11.5895 14.7078 11.6083C14.6621 11.6272 14.6206 11.6548 14.5857 11.6897C14.5508 11.7247 14.5231 11.7662 14.5043 11.8118C14.4855 11.8575 14.4758 11.9064 14.476 11.9558V17.5164C14.4758 17.5658 14.4855 17.6147 14.5043 17.6604C14.5231 17.706 14.5508 17.7475 14.5857 17.7825C14.6206 17.8174 14.6621 17.845 14.7078 17.8639C14.7534 17.8827 14.8024 17.8923 14.8517 17.8921C15.6889 17.891 16.4915 17.558 17.0835 16.966C17.6754 16.374 18.0085 15.5715 18.0096 14.7343V11.6548C18.0096 11.6295 18.0067 11.6042 18.0012 11.5794C18.0065 11.5549 18.0091 11.5298 18.009 11.5047ZM7.77913 12.2091V16.9597C7.21357 16.8703 6.69851 16.5819 6.32661 16.1465C5.95471 15.7111 5.75038 15.1573 5.75038 14.5847C5.75038 14.0121 5.95471 13.4583 6.32661 13.0229C6.69851 12.5876 7.21357 12.2992 7.77913 12.2097V12.2091ZM15.2305 17.1099V12.3581C15.796 12.4476 16.3111 12.7359 16.683 13.1713C17.0549 13.6067 17.2592 14.1605 17.2592 14.7331C17.2592 15.3057 17.0549 15.8595 16.683 16.2949C16.3111 16.7302 15.796 17.0186 15.2305 17.1081V17.1099Z" fill="#444444"/>
<path d="M12.8829 13.5393C13.0048 13.5332 13.1193 13.479 13.2013 13.3885C13.2833 13.2981 13.326 13.1788 13.3201 13.0568C13.3201 12.3403 12.4076 12.6413 12.0078 12.5743C11.9849 12.461 12.1344 11.6094 11.5705 11.6094C10.9921 11.6094 11.158 12.4507 11.1333 12.5743H10.8661C10.7267 12.5765 10.5891 12.606 10.4611 12.6613C10.3331 12.7167 10.2173 12.7966 10.1203 12.8967C10.0232 12.9968 9.94681 13.115 9.89545 13.2446C9.84409 13.3742 9.81876 13.5127 9.82092 13.6521V14.3879C9.81737 14.6689 9.92541 14.9398 10.1213 15.1413C10.3173 15.3428 10.5851 15.4583 10.8661 15.4626H12.2756C12.5608 15.4626 12.4016 15.7509 12.4456 16.3112C12.4456 16.503 11.9378 16.3962 11.5772 16.4246H11.5705H11.5639C10.8317 16.515 9.82031 16.1483 9.82031 16.907C9.82031 17.6235 10.7328 17.3226 11.1327 17.3895V17.872C11.1276 17.9325 11.1352 17.9934 11.1549 18.0509C11.1746 18.1083 11.206 18.161 11.2472 18.2057C11.2883 18.2504 11.3382 18.286 11.3938 18.3104C11.4494 18.3348 11.5095 18.3474 11.5702 18.3474C11.6309 18.3474 11.691 18.3348 11.7466 18.3104C11.8022 18.286 11.8522 18.2504 11.8933 18.2057C11.9344 18.161 11.9658 18.1083 11.9855 18.0509C12.0052 17.9934 12.0128 17.9325 12.0078 17.872V17.3895H12.2749C12.5564 17.3849 12.8244 17.2687 13.0202 17.0665C13.216 16.8643 13.3234 16.5926 13.3189 16.3112V15.5754C13.3189 13.8366 10.6942 14.8101 10.6942 14.3879V13.6521C10.696 13.435 11.2985 13.5876 12.8829 13.5393Z" fill="#444444"/>
<rect x="0.375" y="0.375" width="23.25" height="23.25" rx="11.625" stroke="#444444" stroke-width="0.75"/>
</svg>
