<svg xmlns="http://www.w3.org/2000/svg" xmlns:xlink="http://www.w3.org/1999/xlink" version="1.1" width="256" height="256" viewBox="0 0 256 256" xml:space="preserve">

<defs>
</defs>
<g style="stroke: none; stroke-width: 0; stroke-dasharray: none; stroke-linecap: butt; stroke-linejoin: miter; stroke-miterlimit: 10; fill: none; fill-rule: nonzero; opacity: 1;" transform="translate(1.4065934065934016 1.4065934065934016) scale(2.81 2.81)" >
	<path d="M 89 50.75 H 72.297 c -1.541 0 -2.794 -1.254 -2.794 -2.795 v -6.007 c 0 -1.541 1.253 -2.794 2.794 -2.794 H 89 c 0.553 0 1 0.448 1 1 v 9.597 C 90 50.303 89.553 50.75 89 50.75 z M 72.297 41.153 c -0.438 0 -0.794 0.356 -0.794 0.794 v 6.007 c 0 0.438 0.356 0.795 0.794 0.795 H 88 v -7.597 H 72.297 z" style="stroke: none; stroke-width: 1; stroke-dasharray: none; stroke-linecap: butt; stroke-linejoin: miter; stroke-miterlimit: 10; fill: rgb(0,0,0); fill-rule: nonzero; opacity: 1;" transform=" matrix(1 0 0 1 0 0) " stroke-linecap="round" />
	<path d="M 14.883 47.127 c -0.552 0 -1 -0.447 -1 -1 V 18.082 c 0 -0.552 0.448 -1 1 -1 s 1 0.448 1 1 v 28.045 C 15.883 46.68 15.436 47.127 14.883 47.127 z" style="stroke: none; stroke-width: 1; stroke-dasharray: none; stroke-linecap: butt; stroke-linejoin: miter; stroke-miterlimit: 10; fill: rgb(0,0,0); fill-rule: nonzero; opacity: 1;" transform=" matrix(1 0 0 1 0 0) " stroke-linecap="round" />
	<path d="M 89 74.035 H 36 c -0.552 0 -1 -0.447 -1 -1 s 0.448 -1 1 -1 h 52 V 23.154 c 0 -0.552 0.447 -1 1 -1 s 1 0.448 1 1 v 49.881 C 90 73.588 89.553 74.035 89 74.035 z" style="stroke: none; stroke-width: 1; stroke-dasharray: none; stroke-linecap: butt; stroke-linejoin: miter; stroke-miterlimit: 10; fill: rgb(0,0,0); fill-rule: nonzero; opacity: 1;" transform=" matrix(1 0 0 1 0 0) " stroke-linecap="round" />
	<path d="M 89 24.154 H 19.955 c -3.348 0 -6.072 -2.724 -6.072 -6.072 s 2.724 -6.072 6.072 -6.072 H 89 c 0.553 0 1 0.448 1 1 v 10.144 C 90 23.706 89.553 24.154 89 24.154 z M 19.955 14.01 c -2.245 0 -4.072 1.827 -4.072 4.072 s 1.827 4.072 4.072 4.072 H 88 V 14.01 H 19.955 z" style="stroke: none; stroke-width: 1; stroke-dasharray: none; stroke-linecap: butt; stroke-linejoin: miter; stroke-miterlimit: 10; fill: rgb(0,0,0); fill-rule: nonzero; opacity: 1;" transform=" matrix(1 0 0 1 0 0) " stroke-linecap="round" />
	<path d="M 89 19.082 H 25.292 c -0.552 0 -1 -0.448 -1 -1 s 0.448 -1 1 -1 H 89 c 0.553 0 1 0.448 1 1 S 89.553 19.082 89 19.082 z" style="stroke: none; stroke-width: 1; stroke-dasharray: none; stroke-linecap: butt; stroke-linejoin: miter; stroke-miterlimit: 10; fill: rgb(0,0,0); fill-rule: nonzero; opacity: 1;" transform=" matrix(1 0 0 1 0 0) " stroke-linecap="round" />
	<path d="M 80.792 45.952 h -5.216 c -0.553 0 -1 -0.448 -1 -1 s 0.447 -1 1 -1 h 5.216 c 0.553 0 1 0.448 1 1 S 81.345 45.952 80.792 45.952 z" style="stroke: none; stroke-width: 1; stroke-dasharray: none; stroke-linecap: butt; stroke-linejoin: miter; stroke-miterlimit: 10; fill: rgb(0,0,0); fill-rule: nonzero; opacity: 1;" transform=" matrix(1 0 0 1 0 0) " stroke-linecap="round" />
	<path d="M 33.588 77.99 H 6.583 c -1.881 0 -3.411 -1.53 -3.411 -3.411 v -2.894 c 0 -1.881 1.53 -3.411 3.411 -3.411 h 27.005 c 1.881 0 3.411 1.53 3.411 3.411 v 2.894 C 37 76.46 35.469 77.99 33.588 77.99 z M 6.583 70.274 c -0.778 0 -1.411 0.633 -1.411 1.411 v 2.894 c 0 0.778 0.633 1.411 1.411 1.411 h 27.005 c 0.778 0 1.411 -0.633 1.411 -1.411 v -2.894 c 0 -0.778 -0.633 -1.411 -1.411 -1.411 H 6.583 z" style="stroke: none; stroke-width: 1; stroke-dasharray: none; stroke-linecap: butt; stroke-linejoin: miter; stroke-miterlimit: 10; fill: rgb(0,0,0); fill-rule: nonzero; opacity: 1;" transform=" matrix(1 0 0 1 0 0) " stroke-linecap="round" />
	<path d="M 30.417 70.274 H 3.411 C 1.53 70.274 0 68.744 0 66.863 V 63.97 c 0 -1.881 1.53 -3.411 3.411 -3.411 h 27.005 c 1.881 0 3.412 1.53 3.412 3.411 v 2.894 C 33.828 68.744 32.298 70.274 30.417 70.274 z M 3.411 62.559 C 2.633 62.559 2 63.191 2 63.97 v 2.894 c 0 0.778 0.633 1.411 1.411 1.411 h 27.005 c 0.778 0 1.412 -0.633 1.412 -1.411 V 63.97 c 0 -0.778 -0.633 -1.411 -1.412 -1.411 H 3.411 z" style="stroke: none; stroke-width: 1; stroke-dasharray: none; stroke-linecap: butt; stroke-linejoin: miter; stroke-miterlimit: 10; fill: rgb(0,0,0); fill-rule: nonzero; opacity: 1;" transform=" matrix(1 0 0 1 0 0) " stroke-linecap="round" />
	<path d="M 33.588 62.559 H 6.583 c -1.881 0 -3.411 -1.53 -3.411 -3.411 v -2.894 c 0 -1.881 1.53 -3.411 3.411 -3.411 h 27.005 c 1.881 0 3.411 1.53 3.411 3.411 v 2.894 C 37 61.028 35.469 62.559 33.588 62.559 z M 6.583 54.843 c -0.778 0 -1.411 0.633 -1.411 1.411 v 2.894 c 0 0.778 0.633 1.411 1.411 1.411 h 27.005 c 0.778 0 1.411 -0.633 1.411 -1.411 v -2.894 c 0 -0.778 -0.633 -1.411 -1.411 -1.411 H 6.583 z" style="stroke: none; stroke-width: 1; stroke-dasharray: none; stroke-linecap: butt; stroke-linejoin: miter; stroke-miterlimit: 10; fill: rgb(0,0,0); fill-rule: nonzero; opacity: 1;" transform=" matrix(1 0 0 1 0 0) " stroke-linecap="round" />
	<path d="M 30.417 54.843 H 3.411 C 1.53 54.843 0 53.313 0 51.432 v -2.894 c 0 -1.881 1.53 -3.411 3.411 -3.411 h 27.005 c 1.881 0 3.412 1.53 3.412 3.411 v 2.894 C 33.828 53.313 32.298 54.843 30.417 54.843 z M 3.411 47.127 C 2.633 47.127 2 47.76 2 48.538 v 2.894 c 0 0.778 0.633 1.411 1.411 1.411 h 27.005 c 0.778 0 1.412 -0.633 1.412 -1.411 v -2.894 c 0 -0.778 -0.633 -1.411 -1.412 -1.411 H 3.411 z" style="stroke: none; stroke-width: 1; stroke-dasharray: none; stroke-linecap: butt; stroke-linejoin: miter; stroke-miterlimit: 10; fill: rgb(0,0,0); fill-rule: nonzero; opacity: 1;" transform=" matrix(1 0 0 1 0 0) " stroke-linecap="round" />
</g>
</svg>