<svg width="24" height="24" viewBox="0 0 24 24" fill="none" xmlns="http://www.w3.org/2000/svg">
<path d="M12.0003 3.68373e-09C9.6269 -5.87912e-05 7.30678 0.703684 5.33335 2.02224C3.35991 3.34079 1.8218 5.21493 0.913508 7.40765C0.00521954 9.60038 -0.232446 12.0132 0.230567 14.341C0.693581 16.6688 1.83648 18.807 3.51472 20.4853C5.19297 22.1635 7.33119 23.3064 9.65899 23.7694C11.9868 24.2324 14.3996 23.9948 16.5923 23.0865C18.7851 22.1782 20.6592 20.6401 21.9778 18.6667C23.2963 16.6932 24.0001 14.3731 24 11.9997C23.9965 8.81827 22.7311 5.76815 20.4815 3.51854C18.2318 1.26892 15.1817 0.00354075 12.0003 3.68373e-09ZM12.0003 23.2015C9.78485 23.2016 7.61913 22.5447 5.77702 21.3139C3.9349 20.0831 2.49913 18.3337 1.65126 16.2869C0.803387 14.2401 0.5815 11.9879 1.01366 9.81498C1.44581 7.64209 2.5126 5.64613 4.07912 4.07953C5.64564 2.51293 7.64153 1.44603 9.8144 1.01376C11.9873 0.581493 14.2395 0.803257 16.2864 1.65102C18.3332 2.49878 20.0827 3.93446 21.3136 5.77651C22.5445 7.61856 23.2015 9.78425 23.2015 11.9997C23.1982 14.9695 22.0171 17.8167 19.9171 19.9167C17.8172 22.0167 14.9701 23.1981 12.0003 23.2015Z" fill="#444444"/>
<path d="M12.0003 3.68375e-09C9.6269 -5.87912e-05 7.30678 0.703685 5.33335 2.02224C3.35991 3.34079 1.8218 5.21493 0.913508 7.40765C0.00521958 9.60038 -0.232446 12.0132 0.230567 14.341C0.693581 16.6688 1.83648 18.807 3.51472 20.4853C5.19297 22.1635 7.33119 23.3064 9.65899 23.7694C11.9868 24.2324 14.3996 23.9948 16.5923 23.0865C18.7851 22.1782 20.6592 20.6401 21.9778 18.6667C23.2963 16.6932 24.0001 14.3731 24 11.9997C23.9965 8.81827 22.7311 5.76815 20.4815 3.51854C18.2318 1.26892 15.1817 0.00354075 12.0003 3.68375e-09ZM12.0003 23.2015C9.78485 23.2016 7.61913 22.5447 5.77702 21.3139C3.9349 20.0831 2.49913 18.3337 1.65126 16.2869C0.803387 14.2401 0.5815 11.9879 1.01366 9.81498C1.44581 7.64209 2.5126 5.64613 4.07912 4.07953C5.64564 2.51293 7.64153 1.44603 9.8144 1.01376C11.9873 0.581493 14.2395 0.803257 16.2864 1.65102C18.3332 2.49878 20.0827 3.93446 21.3136 5.77651C22.5445 7.61856 23.2015 9.78425 23.2015 11.9997C23.1982 14.9695 22.0171 17.8167 19.9171 19.9167C17.8172 22.0167 14.9701 23.1981 12.0003 23.2015Z" fill="#444444"/>
<path d="M10.0709 8.67057L10.0406 8.67827V8.70957V14.2459C9.71544 13.9818 9.30112 13.8232 8.85042 13.8232C7.80788 13.8232 6.95977 14.6713 6.95977 15.7138C6.95977 16.7564 7.80788 17.6045 8.85042 17.6045C9.89167 17.6045 10.7389 16.7585 10.741 15.7178V15.7177L10.7411 11.2297L16.1647 9.85482V12.7532C15.8395 12.489 15.4252 12.3304 14.9745 12.3304C13.932 12.3304 13.0839 13.1785 13.0839 14.221C13.0839 15.2636 13.932 16.1117 14.9745 16.1117C16.0171 16.1117 16.8652 15.2636 16.8652 14.221V7V6.9483L16.8151 6.961L10.0709 8.67057ZM8.85044 16.904C8.19423 16.904 7.66028 16.3701 7.66028 15.7138C7.66028 15.0576 8.19421 14.5236 8.85044 14.5236C9.50666 14.5236 10.0406 15.0576 10.0406 15.7138C10.0406 16.3701 9.50666 16.904 8.85044 16.904ZM16.1647 9.1322L10.7411 10.507V9.22335L16.1647 7.84852V9.1322ZM14.9745 15.4112C14.3183 15.4112 13.7844 14.8773 13.7844 14.221C13.7844 13.5648 14.3183 13.0309 14.9745 13.0309C15.6307 13.0309 16.1647 13.5648 16.1647 14.221C16.1647 14.8773 15.6308 15.4112 14.9745 15.4112Z" fill="#444444" stroke="#444444" stroke-width="0.0804669"/>
</svg>
