<svg width="131" height="36" viewBox="0 0 131 36" fill="none" xmlns="http://www.w3.org/2000/svg">
<g clip-path="url(#clip0_450_15734)">
<path fill-rule="evenodd" clip-rule="evenodd" d="M91.0235 25.2157C87.3616 25.2157 84.4119 22.2456 84.4119 18.5634C84.4119 14.8608 87.3414 11.8907 91.0031 11.8907C94.6853 11.8703 97.6962 14.9016 97.6758 18.5634C97.6555 22.2252 94.6853 25.1954 91.0235 25.2157H91.0235ZM87.4227 18.5025C87.4023 20.5369 88.9892 22.1441 91.0031 22.1644C93.0172 22.1644 94.6243 20.5775 94.6446 18.5635C94.665 16.5699 93.0375 14.9018 91.0438 14.9018C89.0502 14.9018 87.443 16.4886 87.4227 18.5025Z" fill="black"/>
<path fill-rule="evenodd" clip-rule="evenodd" d="M65.7975 22.7946C65.5941 22.7742 65.411 22.7742 65.2483 22.7742C64.048 22.7742 62.8477 22.7742 61.6069 22.7742C61.3627 23.3032 61.1389 23.8321 60.8745 24.3203C60.5489 24.9103 60.02 25.1748 59.3284 25.0731C58.6977 24.9917 58.2502 24.6459 58.1281 24.0356C58.0467 23.7101 58.0874 23.3236 58.2095 23.0184C59.5318 19.6617 60.8949 16.3254 62.2171 12.9891C62.4816 12.3177 62.9495 11.9923 63.6615 11.9719C64.3736 11.9719 64.8821 12.2973 65.1466 12.9483C66.5096 16.305 67.8523 19.6617 69.1949 23.0387C69.5205 23.8728 69.1949 24.6459 68.4626 24.951C67.6692 25.2968 66.9164 25.0323 66.4689 24.1983C66.2249 23.7507 66.0214 23.2624 65.7975 22.7946H65.7975ZM64.6583 19.8651C64.3532 19.0716 64.048 18.3597 63.7022 17.4646C63.3361 18.3597 63.0512 19.0716 62.7257 19.8651C63.397 19.8651 63.9667 19.8651 64.6583 19.8651Z" fill="black"/>
<path d="M98.7339 17.4852C98.7339 16.2035 98.7339 14.9016 98.7339 13.6199C98.7339 12.6028 99.3035 11.9925 100.199 11.9722C101.134 11.9518 101.724 12.5824 101.724 13.6199C101.745 16.0001 101.724 18.4007 101.724 20.7809C101.724 21.7573 102.68 22.4084 103.596 22.0829C104.227 21.859 104.511 21.3912 104.491 20.7198C104.491 18.3803 104.491 16.0409 104.491 13.7013C104.491 12.6231 105.061 11.9722 106.017 11.9722C106.932 11.9925 107.502 12.6435 107.502 13.681C107.502 16.0205 107.421 18.3803 107.522 20.6995C107.685 24.1985 104.206 25.7853 101.684 24.9309C99.7104 24.2799 98.6931 22.9373 98.6931 20.8826C98.7339 19.7637 98.7339 18.6245 98.7339 17.4852H98.7339Z" fill="black"/>
<path d="M116.758 18.5226C115.904 17.1392 115.07 15.7559 114.215 14.3725C113.686 13.4977 113.808 12.6636 114.541 12.1957C115.314 11.7074 116.229 11.9516 116.778 12.8467C117.348 13.7419 117.918 14.6573 118.548 15.6541C119.179 14.6369 119.749 13.6808 120.379 12.7857C120.603 12.4602 121.01 12.155 121.376 12.0329C121.986 11.8499 122.556 12.0737 122.943 12.6026C123.329 13.1315 123.309 13.7011 122.963 14.2708C122.088 15.6948 121.213 17.0984 120.318 18.5632C121.071 19.7634 121.824 20.9638 122.576 22.1639C122.719 22.4082 122.902 22.6319 123.024 22.8964C123.41 23.6491 123.187 24.4832 122.495 24.9103C121.803 25.3376 120.888 25.1342 120.42 24.4222C119.871 23.588 119.362 22.7133 118.813 21.8589C118.752 21.7571 118.67 21.6554 118.528 21.4723C117.897 22.4895 117.308 23.4253 116.697 24.3815C116.331 24.9714 115.802 25.1748 115.131 25.0732C114.5 24.9714 114.052 24.5849 113.951 23.9949C113.89 23.588 113.991 23.0794 114.195 22.7133C114.886 21.4927 115.66 20.3331 116.392 19.1328C116.534 18.9294 116.636 18.7463 116.758 18.5226L116.758 18.5226Z" fill="black"/>
<path d="M54.5884 19.6007C55.219 17.7088 55.7683 16.0203 56.3379 14.3114C56.5007 13.8435 56.6431 13.3553 56.8262 12.8874C57.1517 12.094 57.9654 11.7481 58.7791 12.0533C59.5115 12.3178 59.898 13.0909 59.6132 13.8639C58.4333 17.2612 57.2534 20.679 56.0531 24.0763C55.809 24.7476 55.2801 25.0731 54.5884 25.0731C53.8763 25.0731 53.3474 24.768 53.1236 24.0967C51.9233 20.7196 50.7231 17.3426 49.5636 13.9656C49.2787 13.1112 49.6856 12.2974 50.4586 12.033C51.3131 11.7481 52.1065 12.1347 52.432 13.0705C53.1033 14.9828 53.7136 16.9154 54.3646 18.8481C54.3849 19.0312 54.446 19.2143 54.5884 19.6007Z" fill="black"/>
<path d="M80.4244 16.5695C80.9127 15.3488 81.3602 14.23 81.7875 13.1111C81.9909 12.5618 82.3367 12.1549 82.9064 12.0328C83.476 11.9108 84.0049 11.9921 84.3914 12.4804C84.7983 12.9687 84.8797 13.5382 84.6356 14.1486C83.8829 15.8981 83.1302 17.6476 82.3571 19.3768C82.0519 20.0482 81.8892 20.7195 81.9299 21.4722C81.9706 22.1638 81.9502 22.8759 81.9299 23.5676C81.9095 24.483 81.3196 25.0934 80.4854 25.1137C79.6311 25.134 78.9597 24.5034 78.919 23.588C78.8987 22.6928 78.9394 21.7977 78.8987 20.9026C78.8784 20.5567 78.8172 20.2109 78.6952 19.8854C77.8815 17.9935 77.0678 16.1219 76.2337 14.23C75.9692 13.6197 76.0099 13.0297 76.4168 12.5008C76.7626 12.0328 77.2712 11.9108 77.8205 12.0328C78.4104 12.1346 78.7766 12.5211 79.0004 13.0704C79.4683 14.1689 79.9362 15.3082 80.4244 16.5695H80.4244Z" fill="black"/>
<path d="M73.3858 22.0219C74.2606 22.0219 75.0336 22.0219 75.827 22.0219C76.9052 22.0421 77.4952 22.571 77.4748 23.5272C77.4748 24.4833 76.8645 25.0123 75.7863 25.0326C74.5453 25.0326 73.2841 25.0326 72.0431 25.0326C70.9242 25.0123 70.3546 24.4427 70.3546 23.3238C70.3546 20.1095 70.3546 16.8952 70.3546 13.681C70.3546 12.5621 70.9039 11.9518 71.8804 11.9722C72.8161 11.9925 73.3654 12.6028 73.3654 13.6607C73.3654 16.1832 73.3654 18.6855 73.3654 21.208C73.3858 21.4522 73.3858 21.676 73.3858 22.0219L73.3858 22.0219Z" fill="black"/>
<path d="M23.8349 15.4132V15.0213C23.8349 14.8853 23.7977 14.7586 23.7344 14.6496C23.5739 13.9747 23.2242 13.3413 22.7082 12.8058C21.7816 11.8454 20.4014 11.2727 19.0171 11.2727H17.8303C16.9722 11.2727 16.1748 10.6883 16.0355 9.84193C15.8581 8.76418 16.6884 7.82916 17.7332 7.82916C17.7923 7.82916 17.8506 7.83169 17.9081 7.83763C18.7704 7.92546 19.4453 8.65609 19.4453 9.54122C19.4453 9.74909 19.5306 9.93738 19.6683 10.0725C19.8034 10.2102 19.9918 10.2964 20.2004 10.2964C20.6118 10.2964 20.9454 9.96273 20.9454 9.55052C20.9454 7.83425 19.5931 6.42789 17.8979 6.3426C17.7332 6.33415 17.5651 6.3384 17.3945 6.35525C16.0346 6.49381 14.8606 7.54114 14.5886 8.88073C14.1688 10.9441 15.7424 12.7635 17.7332 12.7635H19.0171C19.991 12.7635 20.9935 13.1766 21.6355 13.8413C21.9505 14.1682 22.3171 14.7004 22.3441 15.4199V21.9837H21.2816C20.8702 21.9837 20.5357 22.3173 20.5357 22.7295V28.0414C20.5357 29.0263 19.7376 29.8253 18.7527 29.8253H16.9148C15.9299 29.8253 15.1317 29.0263 15.1317 28.0414V22.7295C15.1317 22.3173 14.7981 21.9837 14.3859 21.9837H13.1223V14.9267C13.1223 14.4562 13.4999 14.1842 13.9695 14.18C14.3783 14.1766 14.7086 13.8447 14.7086 13.435C14.7086 13.0229 14.3749 12.6892 13.9636 12.6892C12.6772 12.6892 11.6315 13.7349 11.6315 15.0213V22.7295C11.6315 23.1408 11.9652 23.4745 12.3765 23.4745H13.6409V28.7873C13.6409 30.1835 14.7728 31.3161 16.1698 31.3161H19.4985C20.8947 31.3161 22.0274 30.1835 22.0274 28.7873V23.4745H23.0891C23.5013 23.4745 23.8349 23.1408 23.8349 22.7295V15.5829C23.8358 15.5264 23.8358 15.4698 23.8349 15.4132L23.8349 15.4132Z" fill="url(#paint0_linear_450_15734)"/>
<path d="M22.4555 8.30398C22.0973 6.05384 20.1171 4.33252 17.728 4.33252L17.7005 4.33332L17.6721 4.33252C15.283 4.33252 13.3029 6.05384 12.9446 8.30398C12.3115 8.53375 11.8742 9.02106 11.8742 9.58615C11.8742 10.3725 12.7178 11.0102 13.759 11.0102V8.16296H13.7582V8.16296C14.1637 6.40526 15.7615 5.09184 17.6721 5.09184L17.7005 5.09268L17.728 5.09184C19.6386 5.09184 21.2365 6.40526 21.642 8.16296V8.16296H21.6411V11.0102C22.6823 11.0102 23.5259 10.3725 23.5259 9.58615C23.5259 9.02106 23.0887 8.53375 22.4555 8.30398H22.4555Z" fill="url(#paint1_linear_450_15734)"/>
<path d="M19.6937 18.7369C19.7325 18.8316 19.7612 18.932 19.7815 19.0385C19.8009 19.144 19.8102 19.2614 19.8102 19.3899C19.8102 19.4346 19.8094 19.481 19.806 19.5284C19.8035 19.5757 19.7992 19.6221 19.7942 19.6661C19.7376 20.085 19.5425 20.4338 19.2072 20.7134C18.9732 20.9085 18.6742 21.0428 18.3118 21.1155C18.2831 21.1433 18.2586 21.1729 18.2358 21.2033C18.2139 21.2337 18.2029 21.2632 18.2029 21.2911V21.5843C18.2029 21.7126 18.1581 21.8233 18.0686 21.9153C17.979 22.0074 17.8701 22.053 17.7417 22.053C17.6133 22.053 17.5018 22.0074 17.4072 21.9153C17.3118 21.8233 17.2645 21.7126 17.2645 21.5843V21.2827C17.2645 21.2101 17.2391 21.1518 17.1893 21.107C17.0161 21.0623 16.8489 21.0006 16.6867 20.9229C16.5246 20.8443 16.3742 20.7438 16.2349 20.6213C16.0499 20.4592 15.908 20.2725 15.8075 20.0605C15.707 19.8476 15.6563 19.639 15.6563 19.4321V19.2893C15.6563 19.139 15.7112 19.0089 15.8201 18.8999C15.9291 18.791 16.0558 18.7369 16.2011 18.7369C16.3573 18.7369 16.4874 18.791 16.5904 18.8999C16.6935 19.0089 16.745 19.139 16.745 19.2893V19.3654C16.745 19.4101 16.7729 19.4878 16.8295 19.5993V19.5909C16.8574 19.6415 16.8852 19.6872 16.9131 19.7294C16.941 19.7708 16.9739 19.8063 17.0136 19.8342C17.0913 19.8958 17.1851 19.9524 17.294 20.0056C17.403 20.0588 17.5466 20.085 17.7248 20.085C17.9317 20.085 18.1007 20.0631 18.2316 20.0183C18.3634 19.9735 18.4639 19.9195 18.5331 19.8553C18.6032 19.791 18.6522 19.7268 18.6801 19.6627C18.708 19.5985 18.7249 19.5495 18.7299 19.5157C18.7409 19.4043 18.7299 19.3037 18.697 19.2142C18.6632 19.1246 18.6015 19.0402 18.5129 18.9591C18.4233 18.878 18.3017 18.8028 18.148 18.7327C17.9942 18.6626 17.8008 18.5917 17.566 18.519C17.1749 18.3966 16.8405 18.2344 16.5609 18.0333C16.3379 17.8602 16.1707 17.6676 16.0583 17.4556C15.9249 17.2039 15.8742 16.9167 15.908 16.5932C15.9418 16.4032 16.0009 16.2275 16.0879 16.0653C16.174 15.9032 16.2957 15.7613 16.4519 15.638H16.4688C16.6808 15.4876 16.9156 15.3812 17.1724 15.3195C17.2341 15.2697 17.2645 15.2114 17.2645 15.1438V14.8009C17.2645 14.6725 17.3118 14.561 17.4072 14.4656C17.5018 14.371 17.6133 14.3237 17.7417 14.3237C17.8701 14.3237 17.979 14.371 18.0686 14.4656C18.1581 14.561 18.2029 14.6725 18.2029 14.8009V15.1607C18.2029 15.1886 18.2155 15.2199 18.24 15.2528C18.2654 15.2866 18.2916 15.317 18.3194 15.3448C18.4478 15.3896 18.5686 15.4403 18.6801 15.4961C18.7916 15.5518 18.9005 15.627 19.0061 15.7216H18.9901L19.0315 15.7469C19.1877 15.8922 19.3119 16.0569 19.4039 16.241C19.4969 16.4251 19.5425 16.6093 19.5425 16.7943C19.5425 16.9446 19.4884 17.073 19.3795 17.1794C19.2705 17.285 19.143 17.3382 18.9985 17.3382C18.8473 17.3382 18.7189 17.285 18.6125 17.1794C18.5069 17.073 18.4537 16.9446 18.4537 16.7943C18.4537 16.7605 18.4402 16.7183 18.4123 16.6684C18.3836 16.6178 18.3397 16.5679 18.278 16.5172C18.2164 16.4674 18.1395 16.4244 18.0475 16.388C17.9554 16.3517 17.8481 16.3331 17.7248 16.3331C17.4849 16.3331 17.2839 16.3923 17.1226 16.5088C17.0719 16.5536 17.0373 16.5958 17.0178 16.6346C16.9976 16.6735 16.9857 16.7073 16.9798 16.7351C16.9629 16.8247 16.9815 16.9083 17.0339 16.9869C17.0871 17.0646 17.1589 17.1347 17.2476 17.1964C17.3371 17.2571 17.4393 17.312 17.5533 17.3593C17.6682 17.4066 17.778 17.4472 17.8844 17.481C18.1024 17.5477 18.3296 17.6271 18.5669 17.7192C18.8043 17.8112 19.0146 17.9329 19.1995 18.084C19.311 18.1727 19.4082 18.2732 19.4926 18.3847C19.5763 18.4971 19.643 18.6145 19.6937 18.737L19.6937 18.7369Z" fill="url(#paint2_linear_450_15734)"/>
<path fill-rule="evenodd" clip-rule="evenodd" d="M17.5579 0.44165C7.8763 0.44165 0 8.31789 0 17.9996C0 27.6812 7.8763 35.5582 17.5579 35.5582C27.2396 35.5582 35.1159 27.6812 35.1159 17.9996C35.1159 8.31789 27.2396 0.44165 17.5579 0.44165ZM17.5579 34.39C8.52107 34.39 1.16838 27.0372 1.16838 17.9997C1.16838 8.96285 8.52107 1.61018 17.5579 1.61018C26.5954 1.61018 33.9474 8.96285 33.9474 17.9997C33.9474 27.0372 26.5954 34.39 17.5579 34.39Z" fill="url(#paint3_linear_450_15734)"/>
<path fill-rule="evenodd" clip-rule="evenodd" d="M17.5579 0.44165C7.8763 0.44165 0 8.31789 0 17.9996C0 27.6812 7.8763 35.5582 17.5579 35.5582C27.2396 35.5582 35.1159 27.6812 35.1159 17.9996C35.1159 8.31789 27.2396 0.44165 17.5579 0.44165ZM17.5579 34.39C8.52107 34.39 1.16838 27.0372 1.16838 17.9997C1.16838 8.96285 8.52107 1.61018 17.5579 1.61018C26.5954 1.61018 33.9474 8.96285 33.9474 17.9997C33.9474 27.0372 26.5954 34.39 17.5579 34.39Z" fill="url(#paint4_linear_450_15734)"/>
<path d="M42.6667 34.6803V1.31958" stroke="#272727" stroke-width="0.851442" stroke-linecap="round"/>
</g>
<path d="M125.375 30.6541V30.345C125.181 30.5768 124.93 30.7122 124.602 30.7122C124.466 30.7122 124.331 30.6928 124.196 30.6349C124.08 30.5962 123.983 30.519 123.925 30.4609C123.867 30.3836 123.829 30.3064 123.79 30.1904C123.771 30.1131 123.771 30.0165 123.771 29.8619V28.5479H124.177V29.7267C124.177 29.9199 124.177 30.0358 124.196 30.1131C124.215 30.2098 124.273 30.287 124.37 30.345C124.447 30.4029 124.563 30.4223 124.679 30.4223C124.795 30.4223 124.911 30.4029 125.027 30.345C125.143 30.287 125.22 30.2098 125.259 30.1131C125.297 30.0165 125.336 29.8812 125.336 29.688V28.5479H125.742V30.6735H125.375V30.6541Z" fill="url(#paint5_linear_450_15734)"/>
<path fill-rule="evenodd" clip-rule="evenodd" d="M127.867 28.1613V27.7556H128.273V28.1613H127.867ZM127.867 30.6541V28.5478H128.273V30.6541H127.867Z" fill="url(#paint6_linear_450_15734)"/>
<path d="M120.35 30.6543V27.3499H120.988L121.742 29.6881C121.819 29.9006 121.858 30.0745 121.896 30.1711C121.935 30.0552 121.993 29.8813 122.07 29.6494L122.843 27.3499H123.423V30.6543H123.017V27.891L122.09 30.6543H121.703L120.776 27.833V30.6543L120.35 30.6543Z" fill="url(#paint7_linear_450_15734)"/>
<path d="M130.322 29.9005H130.707C130.691 30 130.65 30.1002 130.594 30.229C130.502 30.3902 130.414 30.4474 130.331 30.5118C130.304 30.5307 130.332 30.5126 130.266 30.5488C130.119 30.6328 129.869 30.6824 129.636 30.6824C129.289 30.6824 129.066 30.5961 128.853 30.4222C128.64 30.229 128.544 29.9779 128.544 29.63C128.544 29.3981 128.583 29.2049 128.679 29.0309C128.776 28.8571 128.938 28.7123 129.131 28.6155C129.324 28.5383 129.405 28.5154 129.636 28.5154C129.907 28.5154 130.148 28.5692 130.322 28.6851C130.495 28.801 130.649 29.0116 130.707 29.2242H130.322C130.283 29.0889 130.183 28.9918 130.087 28.9339C129.99 28.8759 129.838 28.8259 129.703 28.8259C129.491 28.8259 129.303 28.8956 129.168 29.0309C129.032 29.1661 128.946 29.3595 128.946 29.63C128.946 29.9005 129.032 30.0728 129.168 30.2081C129.216 30.2569 129.306 30.2811 129.388 30.3097C129.421 30.3214 129.465 30.3352 129.538 30.3387L129.605 30.3473H129.673H129.731L129.857 30.3387L129.965 30.3078L130.012 30.2894L130.132 30.2081L130.175 30.1697C130.179 30.1648 130.201 30.1405 130.233 30.105C130.266 30.0628 130.268 30.06 130.322 29.9005L130.322 29.9005Z" fill="url(#paint8_linear_450_15734)"/>
<path d="M127.249 29.5492C127.171 29.5106 127.017 29.4758 126.843 29.4178C126.824 29.4178 126.863 29.4178 126.843 29.4178C126.689 29.3792 126.515 29.3211 126.495 29.3018C126.438 29.2825 126.399 29.2439 126.38 29.2052C126.36 29.1665 126.341 29.1279 126.341 29.0893C126.341 29.0119 126.38 28.954 126.438 28.896C126.495 28.838 126.611 28.8187 126.747 28.8187C126.863 28.8187 127.075 28.921 127.133 28.9982L127.153 29.0201L127.163 29.0341L127.481 28.9294L127.368 28.785L127.258 28.6827C127.255 28.679 127.179 28.6189 127.043 28.5778C127.043 28.5778 126.89 28.5352 126.747 28.5352C126.65 28.5352 126.515 28.5482 126.438 28.5675C126.36 28.5868 126.283 28.6254 126.244 28.6641C126.186 28.7221 126.128 28.7801 126.09 28.8573C126.051 28.9347 126.032 29.0313 126.032 29.1085C126.032 29.2052 126.051 29.3018 126.109 29.3791C126.148 29.4564 126.225 29.5337 126.322 29.5723C126.38 29.6109 126.476 29.6496 126.611 29.6883C126.669 29.7075 126.727 29.7269 126.805 29.7462C126.979 29.7849 127.095 29.8429 127.133 29.8622C127.191 29.9008 127.23 29.9782 127.23 30.0554C127.23 30.152 127.191 30.2293 127.133 30.2873C127.056 30.3453 126.959 30.3839 126.805 30.3839C126.669 30.3839 126.554 30.3453 126.476 30.2679C126.399 30.21 126.399 30.1714 126.38 30.1328L126.032 30.2679C126.07 30.3646 126.167 30.449 126.244 30.5263C126.38 30.6422 126.573 30.6931 126.824 30.6931C126.979 30.6931 127.095 30.6737 127.211 30.6158C127.267 30.5877 127.313 30.5683 127.381 30.5174L127.435 30.472L127.461 30.4447L127.481 30.4208L127.528 30.3683L127.555 30.3159L127.575 30.2679L127.596 30.2165L127.609 30.1328V30.0711V30.0123L127.596 29.9165L127.585 29.8622L127.575 29.8193L127.555 29.7631L127.514 29.7001C127.514 29.7001 127.476 29.6636 127.45 29.6419C127.423 29.6203 127.384 29.6017 127.384 29.6017L127.249 29.5492Z" fill="url(#paint9_linear_450_15734)"/>
<defs>
<linearGradient id="paint0_linear_450_15734" x1="9.52114" y1="1.59272" x2="9.52114" y2="35.2091" gradientUnits="userSpaceOnUse">
<stop stop-color="#FA9C74"/>
<stop offset="1" stop-color="#FF0093"/>
</linearGradient>
<linearGradient id="paint1_linear_450_15734" x1="-11.628" y1="1.59289" x2="-11.628" y2="35.2092" gradientUnits="userSpaceOnUse">
<stop stop-color="#FFA85B"/>
<stop offset="0.334975" stop-color="#FF706E"/>
<stop offset="1" stop-color="#FF0093"/>
</linearGradient>
<linearGradient id="paint2_linear_450_15734" x1="8.7004" y1="1.59296" x2="8.7004" y2="35.209" gradientUnits="userSpaceOnUse">
<stop stop-color="#FA9C74"/>
<stop offset="1" stop-color="#FF0093"/>
</linearGradient>
<linearGradient id="paint3_linear_450_15734" x1="3.28491" y1="3.85329" x2="3.28491" y2="32.4002" gradientUnits="userSpaceOnUse">
<stop stop-color="#FA9C74"/>
<stop offset="1" stop-color="#F85A89"/>
</linearGradient>
<linearGradient id="paint4_linear_450_15734" x1="0" y1="0.44165" x2="0" y2="35.5582" gradientUnits="userSpaceOnUse">
<stop stop-color="#FFA85B"/>
<stop offset="1" stop-color="#FF0093"/>
</linearGradient>
<linearGradient id="paint5_linear_450_15734" x1="133.176" y1="22.7654" x2="120.689" y2="22.7654" gradientUnits="userSpaceOnUse">
<stop stop-color="#FCD85E"/>
<stop offset="1" stop-color="#EF548C"/>
</linearGradient>
<linearGradient id="paint6_linear_450_15734" x1="133.176" y1="-15.3913" x2="120.69" y2="-15.3913" gradientUnits="userSpaceOnUse">
<stop stop-color="#FCD85E"/>
<stop offset="1" stop-color="#EF548C"/>
</linearGradient>
<linearGradient id="paint7_linear_450_15734" x1="133.175" y1="22.2875" x2="120.689" y2="22.2875" gradientUnits="userSpaceOnUse">
<stop stop-color="#FCD85E"/>
<stop offset="1" stop-color="#EF548C"/>
</linearGradient>
<linearGradient id="paint8_linear_450_15734" x1="133.093" y1="23.4771" x2="120.831" y2="23.4771" gradientUnits="userSpaceOnUse">
<stop stop-color="#FCD85E"/>
<stop offset="1" stop-color="#EF548C"/>
</linearGradient>
<linearGradient id="paint9_linear_450_15734" x1="133.319" y1="20.9126" x2="120.582" y2="20.9126" gradientUnits="userSpaceOnUse">
<stop stop-color="#FCD85E"/>
<stop offset="1" stop-color="#EF548C"/>
</linearGradient>
<clipPath id="clip0_450_15734">
<rect width="123.227" height="35.1166" fill="white" transform="translate(0 0.44165)"/>
</clipPath>
</defs>
</svg>
