<svg width="131" height="36" viewBox="0 0 131 36" fill="none" xmlns="http://www.w3.org/2000/svg">
<g clip-path="url(#clip0_253_14254)">
<path fill-rule="evenodd" clip-rule="evenodd" d="M91.0237 25.2157C87.3619 25.2157 84.4121 22.2456 84.4121 18.5634C84.4121 14.8608 87.3416 11.8907 91.0033 11.8907C94.6855 11.8703 97.6964 14.9016 97.676 18.5634C97.6557 22.2252 94.6855 25.1954 91.0237 25.2157H91.0237ZM87.4229 18.5025C87.4026 20.5369 88.9894 22.1441 91.0033 22.1644C93.0174 22.1644 94.6245 20.5775 94.6448 18.5635C94.6652 16.5699 93.0377 14.9018 91.044 14.9018C89.0504 14.9018 87.4432 16.4886 87.4229 18.5025Z" fill="black"/>
<path fill-rule="evenodd" clip-rule="evenodd" d="M65.7977 22.7948C65.5943 22.7745 65.4112 22.7745 65.2485 22.7745C64.0482 22.7745 62.8479 22.7745 61.607 22.7745C61.3629 23.3035 61.1391 23.8323 60.8746 24.3206C60.5491 24.9105 60.0202 25.175 59.3286 25.0734C58.6978 24.9919 58.2503 24.6461 58.1282 24.0358C58.0469 23.7103 58.0876 23.3238 58.2096 23.0186C59.532 19.6619 60.895 16.3257 62.2173 12.9893C62.4818 12.318 62.9497 11.9925 63.6617 11.9722C64.3737 11.9722 64.8823 12.2976 65.1468 12.9486C66.5098 16.3053 67.8525 19.6619 69.1951 23.039C69.5207 23.8731 69.1951 24.6461 68.4627 24.9512C67.6694 25.2971 66.9166 25.0326 66.4691 24.1985C66.2251 23.751 66.0215 23.2627 65.7977 22.7948H65.7977ZM64.6585 19.8653C64.3534 19.0719 64.0481 18.3599 63.7024 17.4648C63.3362 18.3599 63.0513 19.0719 62.7259 19.8653C63.3972 19.8653 63.9669 19.8653 64.6585 19.8653Z" fill="black"/>
<path d="M98.7341 17.4852C98.7341 16.2035 98.7341 14.9016 98.7341 13.6199C98.7341 12.6028 99.3037 11.9925 100.199 11.9722C101.135 11.9518 101.725 12.5824 101.725 13.6199C101.745 16.0001 101.725 18.4007 101.725 20.7809C101.725 21.7573 102.681 22.4084 103.596 22.0829C104.227 21.859 104.512 21.3912 104.491 20.7198C104.491 18.3803 104.491 16.0409 104.491 13.7013C104.491 12.6231 105.061 11.9722 106.017 11.9722C106.933 11.9925 107.502 12.6435 107.502 13.681C107.502 16.0205 107.421 18.3803 107.523 20.6995C107.685 24.1985 104.207 25.7853 101.684 24.9309C99.7106 24.2799 98.6934 22.9373 98.6934 20.8826C98.7341 19.7637 98.7341 18.6245 98.7341 17.4852H98.7341Z" fill="black"/>
<path d="M116.758 18.5228C115.904 17.1395 115.07 15.7561 114.215 14.3727C113.686 13.498 113.808 12.6639 114.541 12.196C115.314 11.7077 116.229 11.9519 116.779 12.847C117.348 13.7421 117.918 14.6575 118.549 15.6543C119.179 14.6372 119.749 13.681 120.379 12.7859C120.603 12.4604 121.01 12.1553 121.376 12.0332C121.986 11.8501 122.556 12.074 122.943 12.6028C123.329 13.1317 123.309 13.7014 122.963 14.271C122.088 15.6951 121.213 17.0987 120.318 18.5634C121.071 19.7637 121.824 20.964 122.576 22.1642C122.719 22.4084 122.902 22.6321 123.024 22.8966C123.411 23.6493 123.187 24.4835 122.495 24.9106C121.803 25.3378 120.888 25.1344 120.42 24.4224C119.871 23.5883 119.362 22.7136 118.813 21.8591C118.752 21.7574 118.671 21.6556 118.528 21.4726C117.897 22.4897 117.308 23.4255 116.697 24.3817C116.331 24.9716 115.802 25.1751 115.131 25.0734C114.5 24.9717 114.053 24.5851 113.951 23.9952C113.89 23.5883 113.991 23.0797 114.195 22.7136C114.887 21.4929 115.66 20.3333 116.392 19.1331C116.534 18.9296 116.636 18.7465 116.758 18.5228L116.758 18.5228Z" fill="black"/>
<path d="M54.5886 19.601C55.2191 17.7091 55.7684 16.0206 56.338 14.3117C56.5008 13.8438 56.6432 13.3555 56.8263 12.8877C57.1518 12.0943 57.9655 11.7484 58.7793 12.0536C59.5117 12.3181 59.8981 13.0911 59.6134 13.8641C58.4334 17.2615 57.2535 20.6792 56.0533 24.0766C55.8091 24.7479 55.2802 25.0734 54.5886 25.0734C53.8765 25.0734 53.3476 24.7682 53.1238 24.0969C51.9235 20.7199 50.7232 17.3429 49.5637 13.9658C49.2789 13.1114 49.6857 12.2976 50.4587 12.0333C51.3132 11.7484 52.1066 12.1349 52.4321 13.0708C53.1034 14.9831 53.7137 16.9157 54.3647 18.8483C54.3851 19.0314 54.4461 19.2145 54.5886 19.601Z" fill="black"/>
<path d="M80.4244 16.5695C80.9126 15.3488 81.3602 14.23 81.7874 13.1111C81.9908 12.5618 82.3367 12.1549 82.9063 12.0328C83.476 11.9108 84.0049 11.9921 84.3914 12.4804C84.7983 12.9687 84.8796 13.5382 84.6355 14.1486C83.8828 15.8981 83.1301 17.6476 82.357 19.3768C82.0519 20.0482 81.8892 20.7195 81.9299 21.4722C81.9705 22.1638 81.9501 22.8759 81.9299 23.5676C81.9095 24.483 81.3195 25.0934 80.4854 25.1137C79.631 25.134 78.9597 24.5034 78.919 23.588C78.8986 22.6928 78.9393 21.7977 78.8986 20.9026C78.8783 20.5567 78.8172 20.2109 78.6952 19.8854C77.8815 17.9935 77.0677 16.1219 76.2336 14.23C75.9692 13.6197 76.0099 13.0297 76.4167 12.5008C76.7625 12.0328 77.2711 11.9108 77.8204 12.0328C78.4103 12.1346 78.7766 12.5211 79.0003 13.0704C79.4683 14.1689 79.9362 15.3082 80.4244 16.5695H80.4244Z" fill="black"/>
<path d="M73.3857 22.0219C74.2605 22.0219 75.0335 22.0219 75.8269 22.0219C76.9051 22.0421 77.4951 22.571 77.4747 23.5272C77.4747 24.4833 76.8644 25.0123 75.7863 25.0326C74.5452 25.0326 73.284 25.0326 72.043 25.0326C70.9241 25.0123 70.3545 24.4427 70.3545 23.3238C70.3545 20.1095 70.3545 16.8952 70.3545 13.681C70.3545 12.5621 70.9038 11.9518 71.8803 11.9722C72.816 11.9925 73.3653 12.6028 73.3653 13.6607C73.3653 16.1832 73.3653 18.6855 73.3653 21.208C73.3857 21.4522 73.3857 21.676 73.3857 22.0219L73.3857 22.0219Z" fill="black"/>
<path d="M23.8347 15.4132V15.0213C23.8347 14.8853 23.7976 14.7586 23.7342 14.6496C23.5737 13.9747 23.224 13.3413 22.708 12.8058C21.7814 11.8454 20.4013 11.2727 19.0169 11.2727H17.8302C16.972 11.2727 16.1747 10.6883 16.0353 9.84193C15.8579 8.76418 16.6882 7.82916 17.733 7.82916C17.7922 7.82916 17.8504 7.83169 17.9079 7.83763C18.7703 7.92546 19.4451 8.65609 19.4451 9.54122C19.4451 9.74909 19.5304 9.93738 19.6681 10.0725C19.8033 10.2102 19.9916 10.2964 20.2002 10.2964C20.6116 10.2964 20.9452 9.96273 20.9452 9.55052C20.9452 7.83425 19.5929 6.42789 17.8977 6.3426C17.733 6.33415 17.565 6.3384 17.3943 6.35525C16.0345 6.49381 14.8604 7.54114 14.5884 8.88073C14.1687 10.9441 15.7422 12.7635 17.733 12.7635H19.0169C19.9908 12.7635 20.9934 13.1766 21.6353 13.8413C21.9503 14.1682 22.3169 14.7004 22.3439 15.4199V21.9837H21.2814C20.87 21.9837 20.5356 22.3173 20.5356 22.7295V28.0414C20.5356 29.0263 19.7374 29.8253 18.7525 29.8253H16.9146C15.9297 29.8253 15.1315 29.0263 15.1315 28.0414V22.7295C15.1315 22.3173 14.7979 21.9837 14.3857 21.9837H13.1221V14.9267C13.1221 14.4562 13.4997 14.1842 13.9693 14.18C14.3781 14.1766 14.7084 13.8447 14.7084 13.435C14.7084 13.0229 14.3747 12.6892 13.9634 12.6892C12.677 12.6892 11.6313 13.7349 11.6313 15.0213V22.7295C11.6313 23.1408 11.965 23.4745 12.3763 23.4745H13.6407V28.7873C13.6407 30.1835 14.7726 31.3161 16.1696 31.3161H19.4983C20.8945 31.3161 22.0272 30.1835 22.0272 28.7873V23.4745H23.0889C23.5011 23.4745 23.8347 23.1408 23.8347 22.7295V15.5829C23.8356 15.5264 23.8356 15.4698 23.8347 15.4132L23.8347 15.4132Z" fill="url(#paint0_linear_253_14254)"/>
<path d="M22.4553 8.30398C22.0971 6.05384 20.1169 4.33252 17.7278 4.33252L17.7003 4.33332L17.672 4.33252C15.2829 4.33252 13.3027 6.05384 12.9444 8.30398C12.3113 8.53375 11.874 9.02106 11.874 9.58615C11.874 10.3725 12.7176 11.0102 13.7588 11.0102V8.16296H13.758C14.1635 6.40526 15.7614 5.09184 17.672 5.09184L17.7003 5.09268L17.7278 5.09184C19.6384 5.09184 21.2363 6.40526 21.6418 8.16296H21.6409V11.0102C22.6821 11.0102 23.5257 10.3725 23.5257 9.58615C23.5257 9.02106 23.0885 8.53375 22.4553 8.30398H22.4553Z" fill="url(#paint1_linear_253_14254)"/>
<path d="M19.6936 18.7369C19.7325 18.8316 19.7612 18.932 19.7815 19.0385C19.8009 19.144 19.8102 19.2614 19.8102 19.3899C19.8102 19.4346 19.8094 19.481 19.806 19.5284C19.8034 19.5757 19.7992 19.6221 19.7941 19.6661C19.7376 20.085 19.5424 20.4338 19.2071 20.7134C18.9732 20.9085 18.6741 21.0428 18.3118 21.1155C18.2831 21.1433 18.2586 21.1729 18.2358 21.2033C18.2138 21.2337 18.2028 21.2632 18.2028 21.2911V21.5843C18.2028 21.7126 18.1581 21.8233 18.0685 21.9153C17.979 22.0074 17.8701 22.053 17.7417 22.053C17.6133 22.053 17.5018 22.0074 17.4072 21.9153C17.3117 21.8233 17.2644 21.7126 17.2644 21.5843V21.2827C17.2644 21.2101 17.2391 21.1518 17.1893 21.107C17.0161 21.0623 16.8489 21.0006 16.6867 20.9229C16.5245 20.8443 16.3742 20.7438 16.2348 20.6213C16.0499 20.4592 15.908 20.2725 15.8074 20.0605C15.7069 19.8476 15.6562 19.639 15.6562 19.4321V19.2893C15.6562 19.139 15.7112 19.0089 15.8201 18.8999C15.9291 18.791 16.0558 18.7369 16.201 18.7369C16.3573 18.7369 16.4874 18.791 16.5904 18.8999C16.6935 19.0089 16.745 19.139 16.745 19.2893V19.3654C16.745 19.4101 16.7729 19.4878 16.8295 19.5993V19.5909C16.8573 19.6415 16.8852 19.6872 16.9131 19.7294C16.9409 19.7708 16.9739 19.8063 17.0136 19.8342C17.0913 19.8958 17.185 19.9524 17.294 20.0056C17.403 20.0588 17.5466 20.085 17.7248 20.085C17.9317 20.085 18.1006 20.0631 18.2316 20.0183C18.3633 19.9735 18.4638 19.9195 18.5331 19.8553C18.6032 19.791 18.6522 19.7268 18.6801 19.6627C18.7079 19.5985 18.7248 19.5495 18.7299 19.5157C18.7409 19.4043 18.7299 19.3037 18.697 19.2142C18.6632 19.1246 18.6015 19.0402 18.5128 18.9591C18.4233 18.878 18.3017 18.8028 18.1479 18.7327C17.9942 18.6626 17.8008 18.5917 17.566 18.519C17.1749 18.3966 16.8404 18.2344 16.5609 18.0333C16.3379 17.8602 16.1706 17.6676 16.0583 17.4556C15.9248 17.2039 15.8742 16.9167 15.9079 16.5932C15.9417 16.4032 16.0009 16.2275 16.0879 16.0653C16.174 15.9032 16.2956 15.7613 16.4519 15.638H16.4688C16.6808 15.4876 16.9156 15.3812 17.1724 15.3195C17.234 15.2697 17.2644 15.2114 17.2644 15.1438V14.8009C17.2644 14.6725 17.3117 14.561 17.4072 14.4656C17.5018 14.371 17.6133 14.3237 17.7417 14.3237C17.8701 14.3237 17.979 14.371 18.0685 14.4656C18.1581 14.561 18.2028 14.6725 18.2028 14.8009V15.1607C18.2028 15.1886 18.2155 15.2199 18.24 15.2528C18.2653 15.2866 18.2915 15.317 18.3194 15.3448C18.4478 15.3896 18.5686 15.4403 18.6801 15.4961C18.7916 15.5518 18.9005 15.627 19.0061 15.7216H18.99L19.0314 15.7469C19.1877 15.8922 19.3119 16.0569 19.4039 16.241C19.4968 16.4251 19.5424 16.6093 19.5424 16.7943C19.5424 16.9446 19.4884 17.073 19.3794 17.1794C19.2705 17.285 19.1429 17.3382 18.9985 17.3382C18.8473 17.3382 18.7189 17.285 18.6125 17.1794C18.5069 17.073 18.4537 16.9446 18.4537 16.7943C18.4537 16.7605 18.4402 16.7183 18.4123 16.6684C18.3836 16.6178 18.3397 16.5679 18.278 16.5172C18.2164 16.4674 18.1395 16.4244 18.0474 16.388C17.9554 16.3517 17.8481 16.3331 17.7248 16.3331C17.4849 16.3331 17.2839 16.3923 17.1225 16.5088C17.0719 16.5536 17.0372 16.5958 17.0178 16.6346C16.9975 16.6735 16.9857 16.7073 16.9798 16.7351C16.9629 16.8247 16.9815 16.9083 17.0339 16.9869C17.0871 17.0646 17.1589 17.1347 17.2475 17.1964C17.3371 17.2571 17.4393 17.312 17.5533 17.3593C17.6682 17.4066 17.778 17.4472 17.8844 17.481C18.1023 17.5477 18.3295 17.6271 18.5669 17.7192C18.8042 17.8112 19.0145 17.9329 19.1995 18.084C19.311 18.1727 19.4081 18.2732 19.4926 18.3847C19.5762 18.4971 19.643 18.6145 19.6936 18.737L19.6936 18.7369Z" fill="url(#paint2_linear_253_14254)"/>
<path fill-rule="evenodd" clip-rule="evenodd" d="M17.5579 0.441895C7.8763 0.441895 0 8.31813 0 17.9998C0 27.6815 7.8763 35.5585 17.5579 35.5585C27.2396 35.5585 35.1159 27.6815 35.1159 17.9998C35.1159 8.31813 27.2396 0.441895 17.5579 0.441895ZM17.5579 34.3902C8.52107 34.3902 1.16838 27.0375 1.16838 17.9999C1.16838 8.96309 8.52107 1.61042 17.5579 1.61042C26.5954 1.61042 33.9474 8.96309 33.9474 17.9999C33.9474 27.0375 26.5954 34.3902 17.5579 34.3902Z" fill="url(#paint3_linear_253_14254)"/>
<path fill-rule="evenodd" clip-rule="evenodd" d="M17.5579 0.441895C7.8763 0.441895 0 8.31813 0 17.9998C0 27.6815 7.8763 35.5585 17.5579 35.5585C27.2396 35.5585 35.1159 27.6815 35.1159 17.9998C35.1159 8.31813 27.2396 0.441895 17.5579 0.441895ZM17.5579 34.3902C8.52107 34.3902 1.16838 27.0375 1.16838 17.9999C1.16838 8.96309 8.52107 1.61042 17.5579 1.61042C26.5954 1.61042 33.9474 8.96309 33.9474 17.9999C33.9474 27.0375 26.5954 34.3902 17.5579 34.3902Z" fill="url(#paint4_linear_253_14254)"/>
<path d="M42.6665 34.6806V1.31982" stroke="#272727" stroke-width="0.851442" stroke-linecap="round"/>
</g>
<path d="M125.375 30.6541V30.345C125.182 30.5768 124.93 30.7122 124.602 30.7122C124.467 30.7122 124.331 30.6928 124.196 30.6349C124.08 30.5962 123.984 30.519 123.925 30.4609C123.868 30.3836 123.829 30.3064 123.79 30.1904C123.771 30.1131 123.771 30.0165 123.771 29.8619V28.5479H124.177V29.7267C124.177 29.9199 124.177 30.0358 124.196 30.1131C124.215 30.2098 124.273 30.287 124.37 30.345C124.447 30.4029 124.563 30.4223 124.679 30.4223C124.795 30.4223 124.911 30.4029 125.027 30.345C125.143 30.287 125.22 30.2098 125.259 30.1131C125.298 30.0165 125.336 29.8812 125.336 29.688V28.5479H125.742V30.6735H125.375V30.6541Z" fill="url(#paint5_linear_253_14254)"/>
<path fill-rule="evenodd" clip-rule="evenodd" d="M127.868 28.1615V27.7559H128.273V28.1615H127.868ZM127.868 30.6544V28.5481H128.273V30.6544H127.868Z" fill="url(#paint6_linear_253_14254)"/>
<path d="M120.351 30.6546V27.3501H120.988L121.742 29.6883C121.819 29.9009 121.858 30.0748 121.897 30.1714C121.935 30.0554 121.993 29.8816 122.07 29.6496L122.843 27.3501H123.423V30.6546H123.017V27.8912L122.09 30.6546H121.703L120.776 27.8332V30.6546L120.351 30.6546Z" fill="url(#paint7_linear_253_14254)"/>
<path d="M130.322 29.9008H130.707C130.691 30.0003 130.65 30.1004 130.595 30.2292C130.502 30.3904 130.414 30.4477 130.331 30.5121C130.304 30.5309 130.332 30.5128 130.266 30.549C130.119 30.633 129.869 30.6827 129.636 30.6827C129.289 30.6827 129.066 30.5964 128.853 30.4225C128.64 30.2292 128.544 29.9781 128.544 29.6303C128.544 29.3984 128.583 29.2051 128.679 29.0312C128.776 28.8573 128.938 28.7126 129.131 28.6158C129.324 28.5386 129.405 28.5156 129.636 28.5156C129.907 28.5156 130.148 28.5694 130.322 28.6854C130.496 28.8013 130.649 29.0119 130.707 29.2244H130.322C130.283 29.0891 130.183 28.9921 130.087 28.9341C129.99 28.8761 129.838 28.8261 129.703 28.8261C129.491 28.8261 129.303 28.8959 129.168 29.0312C129.032 29.1664 128.946 29.3597 128.946 29.6303C128.946 29.9007 129.032 30.0731 129.168 30.2083C129.216 30.2571 129.306 30.2814 129.388 30.31C129.421 30.3216 129.465 30.3355 129.538 30.339L129.605 30.3475H129.673H129.731L129.857 30.339L129.965 30.308L130.012 30.2897L130.132 30.2083L130.175 30.17C130.179 30.1651 130.202 30.1408 130.233 30.1052C130.266 30.0631 130.268 30.0602 130.322 29.9008L130.322 29.9008Z" fill="url(#paint8_linear_253_14254)"/>
<path d="M127.249 29.5492C127.171 29.5106 127.017 29.4758 126.843 29.4178C126.824 29.4178 126.863 29.4178 126.843 29.4178C126.689 29.3792 126.515 29.3211 126.496 29.3018C126.438 29.2825 126.399 29.2439 126.38 29.2052C126.36 29.1665 126.341 29.1279 126.341 29.0893C126.341 29.0119 126.38 28.954 126.438 28.896C126.496 28.838 126.611 28.8187 126.747 28.8187C126.863 28.8187 127.075 28.921 127.133 28.9982L127.153 29.0201L127.163 29.0341L127.481 28.9294L127.368 28.785L127.258 28.6827C127.255 28.679 127.179 28.6189 127.043 28.5778C127.043 28.5778 126.89 28.5352 126.747 28.5352C126.65 28.5352 126.515 28.5482 126.438 28.5675C126.36 28.5868 126.283 28.6254 126.244 28.6641C126.186 28.7221 126.128 28.7801 126.09 28.8573C126.051 28.9347 126.032 29.0313 126.032 29.1085C126.032 29.2052 126.051 29.3018 126.109 29.3791C126.148 29.4564 126.225 29.5337 126.322 29.5723C126.38 29.6109 126.476 29.6496 126.611 29.6883C126.669 29.7075 126.727 29.7269 126.805 29.7462C126.979 29.7849 127.095 29.8429 127.133 29.8622C127.191 29.9008 127.23 29.9782 127.23 30.0554C127.23 30.152 127.191 30.2293 127.133 30.2873C127.056 30.3453 126.959 30.3839 126.805 30.3839C126.669 30.3839 126.554 30.3453 126.476 30.2679C126.399 30.21 126.399 30.1714 126.38 30.1328L126.032 30.2679C126.07 30.3646 126.167 30.449 126.244 30.5263C126.38 30.6422 126.573 30.6931 126.824 30.6931C126.979 30.6931 127.095 30.6737 127.211 30.6158C127.267 30.5877 127.313 30.5683 127.381 30.5174L127.435 30.472L127.461 30.4447L127.481 30.4208L127.528 30.3683L127.555 30.3159L127.576 30.2679L127.596 30.2165L127.609 30.1328V30.0711V30.0123L127.596 29.9165L127.585 29.8622L127.576 29.8193L127.555 29.7631L127.514 29.7001C127.514 29.7001 127.476 29.6636 127.45 29.6419C127.423 29.6203 127.384 29.6017 127.384 29.6017L127.249 29.5492Z" fill="url(#paint9_linear_253_14254)"/>
<defs>
<linearGradient id="paint0_linear_253_14254" x1="9.52095" y1="1.59272" x2="9.52095" y2="35.2091" gradientUnits="userSpaceOnUse">
<stop stop-color="#FA9C74"/>
<stop offset="1" stop-color="#FF0093"/>
</linearGradient>
<linearGradient id="paint1_linear_253_14254" x1="-11.6282" y1="1.59289" x2="-11.6282" y2="35.2092" gradientUnits="userSpaceOnUse">
<stop stop-color="#FFA85B"/>
<stop offset="0.334975" stop-color="#FF706E"/>
<stop offset="1" stop-color="#FF0093"/>
</linearGradient>
<linearGradient id="paint2_linear_253_14254" x1="8.70037" y1="1.59296" x2="8.70037" y2="35.209" gradientUnits="userSpaceOnUse">
<stop stop-color="#FA9C74"/>
<stop offset="1" stop-color="#FF0093"/>
</linearGradient>
<linearGradient id="paint3_linear_253_14254" x1="3.28491" y1="3.85354" x2="3.28491" y2="32.4004" gradientUnits="userSpaceOnUse">
<stop stop-color="#FA9C74"/>
<stop offset="1" stop-color="#F85A89"/>
</linearGradient>
<linearGradient id="paint4_linear_253_14254" x1="0" y1="0.441895" x2="0" y2="35.5585" gradientUnits="userSpaceOnUse">
<stop stop-color="#FFA85B"/>
<stop offset="1" stop-color="#FF0093"/>
</linearGradient>
<linearGradient id="paint5_linear_253_14254" x1="133.176" y1="22.7654" x2="120.689" y2="22.7654" gradientUnits="userSpaceOnUse">
<stop stop-color="#FCD85E"/>
<stop offset="1" stop-color="#EF548C"/>
</linearGradient>
<linearGradient id="paint6_linear_253_14254" x1="133.176" y1="-15.391" x2="120.69" y2="-15.391" gradientUnits="userSpaceOnUse">
<stop stop-color="#FCD85E"/>
<stop offset="1" stop-color="#EF548C"/>
</linearGradient>
<linearGradient id="paint7_linear_253_14254" x1="133.176" y1="22.2877" x2="120.689" y2="22.2877" gradientUnits="userSpaceOnUse">
<stop stop-color="#FCD85E"/>
<stop offset="1" stop-color="#EF548C"/>
</linearGradient>
<linearGradient id="paint8_linear_253_14254" x1="133.093" y1="23.4774" x2="120.831" y2="23.4774" gradientUnits="userSpaceOnUse">
<stop stop-color="#FCD85E"/>
<stop offset="1" stop-color="#EF548C"/>
</linearGradient>
<linearGradient id="paint9_linear_253_14254" x1="133.319" y1="20.9126" x2="120.583" y2="20.9126" gradientUnits="userSpaceOnUse">
<stop stop-color="#FCD85E"/>
<stop offset="1" stop-color="#EF548C"/>
</linearGradient>
<clipPath id="clip0_253_14254">
<rect width="123.227" height="35.1166" fill="white" transform="translate(0 0.441895)"/>
</clipPath>
</defs>
</svg>
