<svg width="24" height="24" viewBox="0 0 24 24" fill="none" xmlns="http://www.w3.org/2000/svg">
<path d="M12.0003 3.68373e-09C9.6269 -5.87912e-05 7.30678 0.703684 5.33335 2.02224C3.35991 3.34079 1.8218 5.21493 0.913508 7.40765C0.00521954 9.60038 -0.232446 12.0132 0.230567 14.341C0.693581 16.6688 1.83648 18.807 3.51472 20.4853C5.19297 22.1635 7.33119 23.3064 9.65899 23.7694C11.9868 24.2324 14.3996 23.9948 16.5923 23.0865C18.7851 22.1782 20.6592 20.6401 21.9778 18.6667C23.2963 16.6932 24.0001 14.3731 24 11.9997C23.9965 8.81827 22.7311 5.76815 20.4815 3.51854C18.2318 1.26892 15.1817 0.00354075 12.0003 3.68373e-09ZM12.0003 23.2015C9.78485 23.2016 7.61913 22.5447 5.77702 21.3139C3.9349 20.0831 2.49913 18.3337 1.65126 16.2869C0.803387 14.2401 0.5815 11.9879 1.01366 9.81498C1.44581 7.64209 2.5126 5.64613 4.07912 4.07953C5.64564 2.51293 7.64153 1.44603 9.8144 1.01376C11.9873 0.581493 14.2395 0.803257 16.2864 1.65102C18.3332 2.49878 20.0827 3.93446 21.3136 5.77651C22.5445 7.61856 23.2015 9.78425 23.2015 11.9997C23.1982 14.9695 22.0171 17.8167 19.9171 19.9167C17.8172 22.0167 14.9701 23.1981 12.0003 23.2015Z" fill="#444444"/>
<path d="M12.0003 3.68375e-09C9.6269 -5.87912e-05 7.30678 0.703685 5.33335 2.02224C3.35991 3.34079 1.8218 5.21493 0.913508 7.40765C0.00521958 9.60038 -0.232446 12.0132 0.230567 14.341C0.693581 16.6688 1.83648 18.807 3.51472 20.4853C5.19297 22.1635 7.33119 23.3064 9.65899 23.7694C11.9868 24.2324 14.3996 23.9948 16.5923 23.0865C18.7851 22.1782 20.6592 20.6401 21.9778 18.6667C23.2963 16.6932 24.0001 14.3731 24 11.9997C23.9965 8.81827 22.7311 5.76815 20.4815 3.51854C18.2318 1.26892 15.1817 0.00354075 12.0003 3.68375e-09ZM12.0003 23.2015C9.78485 23.2016 7.61913 22.5447 5.77702 21.3139C3.9349 20.0831 2.49913 18.3337 1.65126 16.2869C0.803387 14.2401 0.5815 11.9879 1.01366 9.81498C1.44581 7.64209 2.5126 5.64613 4.07912 4.07953C5.64564 2.51293 7.64153 1.44603 9.8144 1.01376C11.9873 0.581493 14.2395 0.803257 16.2864 1.65102C18.3332 2.49878 20.0827 3.93446 21.3136 5.77651C22.5445 7.61856 23.2015 9.78425 23.2015 11.9997C23.1982 14.9695 22.0171 17.8167 19.9171 19.9167C17.8172 22.0167 14.9701 23.1981 12.0003 23.2015Z" fill="#444444"/>
<path d="M11.9954 5.33598C11.9078 5.33685 11.8211 5.35505 11.7405 5.38958C11.6598 5.42411 11.5868 5.47429 11.5254 5.53722C11.4641 5.60015 11.4158 5.67464 11.3831 5.75637C11.3505 5.83809 11.3342 5.92545 11.3352 6.0135V11.3722C11.3353 11.55 11.4056 11.7204 11.5308 11.8461C11.6559 11.9718 11.8256 12.0424 12.0026 12.0424C12.1796 12.0424 12.3493 11.9718 12.4745 11.8461C12.5996 11.7204 12.6699 11.55 12.67 11.3722V6.0135C12.671 5.92424 12.6543 5.83565 12.6208 5.75298C12.5872 5.67031 12.5376 5.59519 12.4747 5.53206C12.4119 5.46894 12.3371 5.41911 12.2548 5.38543C12.1725 5.35175 12.0843 5.33494 11.9954 5.33598ZM15.8851 6.67926C15.8634 6.67863 15.8417 6.67906 15.82 6.68056C15.6882 6.6918 15.5627 6.74219 15.4595 6.82528C15.3562 6.90837 15.2799 7.02039 15.2403 7.14716C15.2006 7.27393 15.1994 7.40971 15.2368 7.53717C15.2742 7.66463 15.3485 7.77804 15.4502 7.86297C16.6051 8.84807 17.3358 10.3143 17.3358 11.9608C17.3358 14.9337 14.9591 17.3299 12.0059 17.3299C9.05264 17.3299 6.6707 14.9337 6.6707 11.9608C6.67071 10.3238 7.39208 8.86755 8.53547 7.88258C8.60208 7.82547 8.65684 7.75572 8.69662 7.67735C8.73641 7.59898 8.76043 7.51352 8.76733 7.42583C8.77422 7.33813 8.76385 7.24998 8.73681 7.16631C8.70977 7.08264 8.66658 7.00514 8.60972 6.93824C8.55286 6.87133 8.48343 6.81633 8.40541 6.77637C8.32739 6.73642 8.24229 6.71225 8.15498 6.70532C8.06767 6.6984 7.97986 6.70884 7.89656 6.736C7.81326 6.76317 7.73611 6.80653 7.6695 6.86365C6.2422 8.09321 5.33594 9.92592 5.33594 11.9608C5.33593 15.6564 8.33079 18.6693 12.0059 18.6693C15.6809 18.6693 18.6693 15.6564 18.6693 11.9608C18.6693 9.91405 17.7541 8.0738 16.3123 6.84404C16.1937 6.74023 16.0424 6.68187 15.8851 6.67926H15.8851Z" fill="#444444"/>
</svg>
