<svg width="18" height="18" viewBox="0 0 18 18" fill="none" xmlns="http://www.w3.org/2000/svg">
<path d="M5.88209 2.91287V12.4944C5.32455 11.997 4.58985 11.6942 3.78565 11.6942C2.04718 11.6942 0.632812 13.1086 0.632812 14.8471C0.632812 16.5856 2.04718 18 3.78565 18C5.52198 18 6.93487 16.5892 6.93846 14.8537H6.93853V7.1534L16.3167 4.77611V9.95092C15.7591 9.45357 15.0245 9.15077 14.2203 9.15077C12.4818 9.15077 11.0674 10.5651 11.0674 12.3036C11.0674 14.0421 12.4818 15.4565 14.2203 15.4565C15.9588 15.4565 17.3731 14.0421 17.3731 12.3036V0L5.88209 2.91287ZM3.78569 16.9435C2.62975 16.9435 1.68929 16.0031 1.68929 14.8471C1.68929 13.6911 2.62972 12.7507 3.78569 12.7507C4.94166 12.7507 5.88212 13.6911 5.88212 14.8471C5.88209 16.0031 4.94166 16.9435 3.78569 16.9435ZM6.93853 6.0636V3.73492L16.3167 1.35766V3.6863L6.93853 6.0636ZM14.2203 14.4C13.0643 14.4 12.1239 13.4596 12.1239 12.3036C12.1239 11.1477 13.0643 10.2072 14.2203 10.2072C15.3762 10.2072 16.3167 11.1476 16.3167 12.3036C16.3167 13.4596 15.3763 14.4 14.2203 14.4Z" fill="#707070"/>
</svg>
