<svg xmlns="http://www.w3.org/2000/svg" xmlns:xlink="http://www.w3.org/1999/xlink" version="1.1" width="256" height="256" viewBox="0 0 256 256" xml:space="preserve">

<defs>
</defs>
<g style="stroke: none; stroke-width: 0; stroke-dasharray: none; stroke-linecap: butt; stroke-linejoin: miter; stroke-miterlimit: 10; fill: none; fill-rule: nonzero; opacity: 1;" transform="translate(1.4065934065934016 1.4065934065934016) scale(2.81 2.81)" >
	<path d="M 83.664 15.699 h -3.302 v -1.803 c 0 -3.138 -2.553 -5.69 -5.69 -5.69 H 71.95 V 5.69 c 0 -3.138 -2.553 -5.69 -5.69 -5.69 H 6.336 c -3.137 0 -5.69 2.553 -5.69 5.69 v 71.963 C 0.646 84.461 6.185 90 12.992 90 h 65.66 c 5.585 0 10.178 -5.223 10.655 -11.856 c 0.03 -0.137 0.047 -0.279 0.047 -0.425 v -56.33 C 89.354 18.251 86.802 15.699 83.664 15.699 z M 12.992 86 c -4.602 0 -8.346 -3.744 -8.346 -8.347 V 5.69 C 4.646 4.758 5.404 4 6.336 4 H 66.26 c 0.932 0 1.69 0.758 1.69 1.69 v 71.316 c 0 3.487 1.137 6.657 2.984 8.993 H 12.992 z M 78.652 86 c -3.695 0 -6.702 -4.034 -6.702 -8.993 V 12.205 h 2.722 c 0.932 0 1.69 0.758 1.69 1.69 v 63.823 c 0 1.104 0.896 2 2 2 s 2 -0.896 2 -2 v -58.02 h 3.302 c 0.932 0 1.69 0.758 1.69 1.69 v 55.618 C 85.354 81.966 82.348 86 78.652 86 z" style="stroke: none; stroke-width: 1; stroke-dasharray: none; stroke-linecap: butt; stroke-linejoin: miter; stroke-miterlimit: 10; fill: rgb(0,0,0); fill-rule: nonzero; opacity: 1;" transform=" matrix(1 0 0 1 0 0) " stroke-linecap="round" />
	<path d="M 35.874 41.286 H 12.723 c -2.083 0 -3.777 -1.694 -3.777 -3.777 V 14.087 c 0 -2.083 1.694 -3.777 3.777 -3.777 h 23.151 c 2.083 0 3.777 1.694 3.777 3.777 v 23.422 C 39.651 39.592 37.957 41.286 35.874 41.286 z M 12.946 37.286 h 22.706 V 14.31 H 12.946 V 37.286 z" style="stroke: none; stroke-width: 1; stroke-dasharray: none; stroke-linecap: butt; stroke-linejoin: miter; stroke-miterlimit: 10; fill: rgb(0,0,0); fill-rule: nonzero; opacity: 1;" transform=" matrix(1 0 0 1 0 0) " stroke-linecap="round" />
	<path d="M 61.375 14.31 h -15.06 c -1.104 0 -2 -0.896 -2 -2 s 0.896 -2 2 -2 h 15.06 c 1.104 0 2 0.896 2 2 S 62.479 14.31 61.375 14.31 z" style="stroke: none; stroke-width: 1; stroke-dasharray: none; stroke-linecap: butt; stroke-linejoin: miter; stroke-miterlimit: 10; fill: rgb(0,0,0); fill-rule: nonzero; opacity: 1;" transform=" matrix(1 0 0 1 0 0) " stroke-linecap="round" />
	<path d="M 61.375 23.302 h -15.06 c -1.104 0 -2 -0.896 -2 -2 s 0.896 -2 2 -2 h 15.06 c 1.104 0 2 0.896 2 2 S 62.479 23.302 61.375 23.302 z" style="stroke: none; stroke-width: 1; stroke-dasharray: none; stroke-linecap: butt; stroke-linejoin: miter; stroke-miterlimit: 10; fill: rgb(0,0,0); fill-rule: nonzero; opacity: 1;" transform=" matrix(1 0 0 1 0 0) " stroke-linecap="round" />
	<path d="M 61.375 32.294 h -15.06 c -1.104 0 -2 -0.896 -2 -2 s 0.896 -2 2 -2 h 15.06 c 1.104 0 2 0.896 2 2 S 62.479 32.294 61.375 32.294 z" style="stroke: none; stroke-width: 1; stroke-dasharray: none; stroke-linecap: butt; stroke-linejoin: miter; stroke-miterlimit: 10; fill: rgb(0,0,0); fill-rule: nonzero; opacity: 1;" transform=" matrix(1 0 0 1 0 0) " stroke-linecap="round" />
	<path d="M 61.375 41.286 h -15.06 c -1.104 0 -2 -0.896 -2 -2 s 0.896 -2 2 -2 h 15.06 c 1.104 0 2 0.896 2 2 S 62.479 41.286 61.375 41.286 z" style="stroke: none; stroke-width: 1; stroke-dasharray: none; stroke-linecap: butt; stroke-linejoin: miter; stroke-miterlimit: 10; fill: rgb(0,0,0); fill-rule: nonzero; opacity: 1;" transform=" matrix(1 0 0 1 0 0) " stroke-linecap="round" />
	<path d="M 61.375 50.278 H 10.946 c -1.104 0 -2 -0.896 -2 -2 s 0.896 -2 2 -2 h 50.429 c 1.104 0 2 0.896 2 2 S 62.479 50.278 61.375 50.278 z" style="stroke: none; stroke-width: 1; stroke-dasharray: none; stroke-linecap: butt; stroke-linejoin: miter; stroke-miterlimit: 10; fill: rgb(0,0,0); fill-rule: nonzero; opacity: 1;" transform=" matrix(1 0 0 1 0 0) " stroke-linecap="round" />
	<path d="M 61.375 59.271 H 10.946 c -1.104 0 -2 -0.896 -2 -2 s 0.896 -2 2 -2 h 50.429 c 1.104 0 2 0.896 2 2 S 62.479 59.271 61.375 59.271 z" style="stroke: none; stroke-width: 1; stroke-dasharray: none; stroke-linecap: butt; stroke-linejoin: miter; stroke-miterlimit: 10; fill: rgb(0,0,0); fill-rule: nonzero; opacity: 1;" transform=" matrix(1 0 0 1 0 0) " stroke-linecap="round" />
	<path d="M 61.375 68.262 H 10.946 c -1.104 0 -2 -0.896 -2 -2 s 0.896 -2 2 -2 h 50.429 c 1.104 0 2 0.896 2 2 S 62.479 68.262 61.375 68.262 z" style="stroke: none; stroke-width: 1; stroke-dasharray: none; stroke-linecap: butt; stroke-linejoin: miter; stroke-miterlimit: 10; fill: rgb(0,0,0); fill-rule: nonzero; opacity: 1;" transform=" matrix(1 0 0 1 0 0) " stroke-linecap="round" />
	<path d="M 61.375 77.254 H 10.946 c -1.104 0 -2 -0.896 -2 -2 s 0.896 -2 2 -2 h 50.429 c 1.104 0 2 0.896 2 2 S 62.479 77.254 61.375 77.254 z" style="stroke: none; stroke-width: 1; stroke-dasharray: none; stroke-linecap: butt; stroke-linejoin: miter; stroke-miterlimit: 10; fill: rgb(0,0,0); fill-rule: nonzero; opacity: 1;" transform=" matrix(1 0 0 1 0 0) " stroke-linecap="round" />
</g>
</svg>