<svg width="24" height="24" viewBox="0 0 24 24" fill="none" xmlns="http://www.w3.org/2000/svg">
<g clip-path="url(#clip0_547_34194)">
<path d="M6.32802 16.9688H0.702917C0.516491 16.9688 0.337702 17.0428 0.205879 17.1746C0.0740571 17.3064 0 17.4852 0 17.6717L0 23.2968C0 23.4832 0.0740571 23.662 0.205879 23.7938C0.337702 23.9256 0.516491 23.9997 0.702917 23.9997H6.32802C6.51444 23.9997 6.69323 23.9256 6.82505 23.7938C6.95688 23.662 7.03093 23.4832 7.03093 23.2968V17.6717C7.03093 17.4852 6.95688 17.3064 6.82505 17.1746C6.69323 17.0428 6.51444 16.9687 6.32802 16.9688ZM5.6251 18.3752V19.7816H1.40642V18.3752H5.6251ZM5.6251 22.5939H1.40642V21.1874H5.6251V22.5939Z" fill="url(#paint0_linear_547_34194)"/>
<path d="M14.8124 14.1562H9.18729C9.00087 14.1562 8.82207 14.2303 8.69025 14.3621C8.55843 14.4939 8.48438 14.6727 8.48438 14.8592V23.2965C8.48438 23.4829 8.55843 23.6617 8.69025 23.7936C8.82207 23.9254 9.00087 23.9994 9.18729 23.9994H14.8124C14.9988 23.9994 15.1776 23.9254 15.3094 23.7936C15.4412 23.6617 15.5153 23.4829 15.5153 23.2965V14.8592C15.5153 14.6727 15.4412 14.4939 15.3094 14.3621C15.1776 14.2303 14.9988 14.1562 14.8124 14.1562ZM9.89079 18.3749H14.1095V19.7814H9.89079V18.3749ZM14.1095 15.5627V16.9691H9.89079V15.5627H14.1095ZM14.1095 22.5936H9.89079V21.1872H14.1095V22.5936Z" fill="url(#paint1_linear_547_34194)"/>
<path d="M23.2968 8.53125H17.6717C17.4852 8.53125 17.3064 8.6053 17.1746 8.73712C17.0428 8.86895 16.9687 9.04774 16.9688 9.23417V23.2966C16.9688 23.3889 16.9869 23.4803 17.0223 23.5656C17.0576 23.6509 17.1094 23.7284 17.1746 23.7937C17.2399 23.8589 17.3174 23.9107 17.4027 23.946C17.488 23.9814 17.5793 23.9995 17.6717 23.9995H23.2968C23.3891 23.9995 23.4805 23.9814 23.5658 23.946C23.651 23.9107 23.7285 23.8589 23.7938 23.7937C23.8591 23.7284 23.9109 23.6509 23.9462 23.5656C23.9815 23.4803 23.9997 23.3889 23.9997 23.2966V9.23417C23.9997 9.04774 23.9256 8.86895 23.7938 8.73712C23.662 8.6053 23.4832 8.53125 23.2968 8.53125ZM18.3752 16.9686V15.5622H22.5939V16.9686H18.3752ZM22.5939 14.1564H18.3752V12.7499H22.5939V14.1564ZM18.3752 18.375H22.5939V19.7815H18.3752V18.375ZM22.5939 9.93767V11.3441H18.3752V9.93767H22.5939ZM22.5939 22.5937H18.3752V21.1873H22.5939V22.5937Z" fill="url(#paint2_linear_547_34194)"/>
<path d="M3.56342 12.7036C3.65576 12.7037 3.74721 12.6856 3.83252 12.6503C3.91783 12.615 3.99532 12.5632 4.06053 12.4978L9.19088 7.36745L11.506 9.68259C11.5713 9.74815 11.6489 9.80017 11.7344 9.83566C11.8199 9.87116 11.9115 9.88943 12.004 9.88943C12.0966 9.88943 12.1882 9.87116 12.2736 9.83566C12.3591 9.80017 12.4367 9.74815 12.502 9.68259L19.7346 2.40752V3.51615C19.7346 3.70265 19.8087 3.88152 19.9406 4.01339C20.0725 4.14527 20.2513 4.21936 20.4378 4.21936C20.6243 4.21936 20.8032 4.14527 20.9351 4.01339C21.067 3.88152 21.1411 3.70265 21.1411 3.51615V0.702714C21.1408 0.519915 21.0694 0.344397 20.9419 0.21339C20.8144 0.0823818 20.6409 0.00619047 20.4582 0.000976562H20.4381H17.6253C17.4388 0.000976563 17.2599 0.0750647 17.128 0.206942C16.9962 0.33882 16.9221 0.517685 16.9221 0.704188C16.9221 0.890691 16.9962 1.06956 17.128 1.20143C17.2599 1.33331 17.4388 1.4074 17.6253 1.4074H18.7457L12.0002 8.19243L9.68504 5.87847C9.61977 5.81317 9.54227 5.76138 9.45698 5.72604C9.37168 5.6907 9.28026 5.67251 9.18793 5.67251C9.09561 5.67251 9.00418 5.6907 8.91889 5.72604C8.83359 5.76138 8.7561 5.81317 8.69082 5.87847L3.06631 11.503C2.96797 11.6013 2.901 11.7265 2.87387 11.8629C2.84673 11.9993 2.86065 12.1406 2.91387 12.2691C2.96708 12.3976 3.0572 12.5074 3.17282 12.5846C3.28844 12.6618 3.42438 12.703 3.56342 12.703V12.7036Z" fill="url(#paint3_linear_547_34194)"/>
</g>
<defs>
<linearGradient id="paint0_linear_547_34194" x1="3.51547" y1="16.9688" x2="3.51547" y2="23.9997" gradientUnits="userSpaceOnUse">
<stop stop-color="#DBA650"/>
<stop offset="1" stop-color="#FD4882"/>
</linearGradient>
<linearGradient id="paint1_linear_547_34194" x1="11.9998" y1="14.1562" x2="11.9998" y2="23.9994" gradientUnits="userSpaceOnUse">
<stop stop-color="#DBA650"/>
<stop offset="1" stop-color="#FD4882"/>
</linearGradient>
<linearGradient id="paint2_linear_547_34194" x1="20.4842" y1="8.53125" x2="20.4842" y2="23.9995" gradientUnits="userSpaceOnUse">
<stop stop-color="#DBA650"/>
<stop offset="1" stop-color="#FD4882"/>
</linearGradient>
<linearGradient id="paint3_linear_547_34194" x1="12.0007" y1="0.000976562" x2="12.0007" y2="12.7036" gradientUnits="userSpaceOnUse">
<stop stop-color="#DBA650"/>
<stop offset="1" stop-color="#FD4882"/>
</linearGradient>
<clipPath id="clip0_547_34194">
<rect width="23.9994" height="24" fill="white"/>
</clipPath>
</defs>
</svg>
