<svg width="24" height="24" viewBox="0 0 24 24" fill="none" xmlns="http://www.w3.org/2000/svg">
<g clip-path="url(#clip0_1090_56857)">
<path d="M12.0003 3.68373e-09C9.6269 -5.87912e-05 7.30678 0.703684 5.33335 2.02224C3.35991 3.34079 1.8218 5.21493 0.913508 7.40765C0.00521954 9.60038 -0.232446 12.0132 0.230567 14.341C0.693581 16.6688 1.83648 18.807 3.51472 20.4853C5.19297 22.1635 7.33119 23.3064 9.65899 23.7694C11.9868 24.2324 14.3996 23.9948 16.5923 23.0865C18.7851 22.1782 20.6592 20.6401 21.9778 18.6667C23.2963 16.6932 24.0001 14.3731 24 11.9997C23.9965 8.81827 22.7311 5.76815 20.4815 3.51854C18.2318 1.26892 15.1817 0.00354075 12.0003 3.68373e-09V3.68373e-09ZM12.0003 23.2015C9.78485 23.2016 7.61913 22.5447 5.77702 21.3139C3.9349 20.0831 2.49913 18.3337 1.65126 16.2869C0.803387 14.2401 0.5815 11.9879 1.01366 9.81498C1.44581 7.64209 2.5126 5.64613 4.07912 4.07953C5.64564 2.51293 7.64153 1.44603 9.8144 1.01376C11.9873 0.581493 14.2395 0.803257 16.2864 1.65102C18.3332 2.49878 20.0827 3.93446 21.3136 5.77651C22.5445 7.61856 23.2015 9.78425 23.2015 11.9997C23.1982 14.9695 22.0171 17.8167 19.9171 19.9167C17.8172 22.0167 14.9701 23.1981 12.0003 23.2015V23.2015Z" fill="#444444"/>
<path d="M12.0003 3.68375e-09C9.6269 -5.87912e-05 7.30678 0.703685 5.33335 2.02224C3.35991 3.34079 1.8218 5.21493 0.913508 7.40765C0.00521958 9.60038 -0.232446 12.0132 0.230567 14.341C0.693581 16.6688 1.83648 18.807 3.51472 20.4853C5.19297 22.1635 7.33119 23.3064 9.65899 23.7694C11.9868 24.2324 14.3996 23.9948 16.5923 23.0865C18.7851 22.1782 20.6592 20.6401 21.9778 18.6667C23.2963 16.6932 24.0001 14.3731 24 11.9997C23.9965 8.81827 22.7311 5.76815 20.4815 3.51854C18.2318 1.26892 15.1817 0.00354075 12.0003 3.68375e-09ZM12.0003 23.2015C9.78485 23.2016 7.61913 22.5447 5.77702 21.3139C3.9349 20.0831 2.49913 18.3337 1.65126 16.2869C0.803387 14.2401 0.5815 11.9879 1.01366 9.81498C1.44581 7.64209 2.5126 5.64613 4.07912 4.07953C5.64564 2.51293 7.64153 1.44603 9.8144 1.01376C11.9873 0.581493 14.2395 0.803257 16.2864 1.65102C18.3332 2.49878 20.0827 3.93446 21.3136 5.77651C22.5445 7.61856 23.2015 9.78425 23.2015 11.9997C23.1982 14.9695 22.0171 17.8167 19.9171 19.9167C17.8172 22.0167 14.9701 23.1981 12.0003 23.2015Z" fill="#444444"/>
<path d="M12.0039 5C9.20248 4.99959 6.67058 6.66947 5.56793 9.2448L5.48067 9.27373L5.5145 9.37523C4.0627 12.9559 5.78846 17.0355 9.36914 18.4873C10.2054 18.8264 11.0994 19.0005 12.0019 19C15.8678 19.0006 19.0023 15.867 19.0029 12.001C19.0035 8.13507 15.8699 5.00055 12.0039 5ZM17.4946 15.5293L17.1352 15.1701V14.3333C17.1356 14.2972 17.1276 14.2615 17.1119 14.229L16.2019 12.4116V11.5333C16.2019 11.4553 16.1629 11.3825 16.098 11.3392L15.398 10.8725C15.3432 10.8359 15.2754 10.8242 15.2114 10.8403L14.3541 11.0545L12.9142 10.4367L12.7161 9.0488L13.2651 8.5H14.4437L14.8404 9.09617C14.8762 9.14977 14.9326 9.1862 14.9962 9.19673L16.3962 9.43007C16.4337 9.43637 16.4722 9.4333 16.5082 9.4212L17.7976 8.9914C18.8791 11.0668 18.7634 13.5629 17.4946 15.5293ZM16.5323 7.29927L16.1529 7.5522L15.0952 7.34057L14.4089 7.11213C14.3669 7.09787 14.3217 7.09606 14.2787 7.107L13.4112 7.32377L13.0309 7.19707L13.3127 6.63333H14.1019C14.1381 6.63336 14.1738 6.62499 14.2062 6.60883L15.0135 6.20517C15.5695 6.49537 16.0809 6.86381 16.5323 7.29927ZM9.44617 5.9877L10.0062 6.36103C10.0337 6.37935 10.0648 6.3916 10.0974 6.39697L11.2281 6.5855L11.1178 6.91567L10.5286 7.11237C10.4758 7.12992 10.4311 7.16574 10.4024 7.2134L9.73223 8.33013L8.65587 8.976L7.0692 9.20257C6.9542 9.21881 6.86868 9.31719 6.86853 9.43333V10.1333C6.86853 10.1952 6.89315 10.2545 6.9369 10.2983L7.3352 10.6966V11.0975L6.36453 10.4502L6.01243 9.3939C6.68233 7.86323 7.91016 6.64523 9.44617 5.9877ZM8.78187 13.638L7.7272 13.4268L7.3352 12.6449V12.0966L8.2046 11.2272L8.52637 11.871C8.56589 11.9501 8.64677 12 8.7352 12H10.2365L10.8686 13.0535C10.9107 13.1237 10.9866 13.1666 11.0685 13.1667H11.7172L11.5539 13.985L10.6705 14.8684C10.6266 14.9121 10.602 14.9714 10.6019 15.0333V15.6167L9.76187 16.2467C9.70312 16.2907 9.66853 16.3599 9.66853 16.4333V17.2761L9.37827 17.18L8.96853 16.1552V13.8667C8.96856 13.7558 8.89051 13.6602 8.78187 13.638ZM8.08047 17.2249C5.88045 15.5744 4.95007 12.7226 5.75343 10.0923L5.94733 10.6737C5.96367 10.7229 5.99592 10.7653 6.03903 10.7941L7.2022 11.5695L6.9369 11.835C6.89315 11.8788 6.86853 11.9381 6.86853 12V12.7C6.8685 12.7362 6.87687 12.7719 6.89303 12.8043L7.3597 13.7376C7.39202 13.8021 7.4523 13.848 7.52303 13.862L8.50303 14.0578V16.2C8.503 16.2296 8.50863 16.259 8.5196 16.2866L8.98627 17.4532C9.01182 17.517 9.06414 17.5662 9.1293 17.5879L9.8293 17.8212C9.85269 17.8291 9.87719 17.8332 9.90187 17.8333C10.0307 17.8333 10.1352 17.7289 10.1352 17.6V16.55L10.9752 15.92C11.0339 15.8759 11.0685 15.8068 11.0685 15.7333V15.1299L11.9335 14.265C11.966 14.2324 11.9882 14.1909 11.9972 14.1457L12.2305 12.9791C12.2558 12.8527 12.1738 12.7298 12.0475 12.7045C12.0324 12.7015 12.0172 12.7 12.0019 12.7H11.2006L10.5685 11.6465C10.5263 11.5763 10.4504 11.5334 10.3685 11.5333H8.8794L8.47853 10.729C8.44496 10.6619 8.38115 10.615 8.30703 10.603C8.23295 10.5902 8.15732 10.6147 8.10473 10.6684L7.80187 10.9701V10.6C7.80187 10.5381 7.77725 10.4788 7.7335 10.435L7.3352 10.0367V9.63563L8.76833 9.431C8.7991 9.42654 8.82871 9.41598 8.85537 9.39997L10.022 8.69997C10.0548 8.68031 10.0822 8.65289 10.1018 8.62017L10.7575 7.52747L11.3756 7.3212C11.4454 7.2983 11.5002 7.24356 11.5231 7.17373L11.7564 6.47373C11.7968 6.35138 11.7304 6.2194 11.6081 6.17897C11.5968 6.17524 11.5852 6.17238 11.5735 6.1704L10.2229 5.94523L9.98563 5.78703C11.454 5.30911 13.0443 5.36826 14.4731 5.95387L14.0468 6.16667H13.1685C13.0797 6.16617 12.9983 6.21622 12.9585 6.2957L12.4919 7.22903C12.4344 7.34436 12.4812 7.48448 12.5966 7.54196C12.6064 7.54686 12.6166 7.55106 12.627 7.55453L13.327 7.78787C13.369 7.80213 13.4142 7.80394 13.4572 7.793L14.3247 7.57623L14.9603 7.78787C14.9694 7.79113 14.9788 7.79364 14.9883 7.79533L16.155 8.02867C16.2156 8.04103 16.2787 8.02861 16.3302 7.99413L16.8613 7.63993C17.1226 7.93105 17.3575 8.24488 17.5631 8.5777L16.4151 8.96037L15.1722 8.75317L14.7615 8.13717C14.7184 8.07262 14.6461 8.03371 14.5685 8.03333H13.1685C13.1066 8.03333 13.0473 8.05795 13.0036 8.1017L12.3036 8.8017C12.2516 8.85365 12.2271 8.92706 12.2375 8.9998L12.4709 10.6331C12.4826 10.7139 12.5357 10.7826 12.6109 10.8144L14.2442 11.5144C14.291 11.5347 14.3432 11.5389 14.3926 11.5263L15.2258 11.318L15.7352 11.6582V12.4667C15.7348 12.5028 15.7428 12.5385 15.7585 12.571L16.6685 14.3884V15.2667C16.6685 15.3286 16.6931 15.3879 16.7369 15.4316L17.225 15.92C15.0602 18.8055 10.966 19.3898 8.08047 17.2249Z" fill="#444444"/>
</g>
<defs>
<clipPath id="clip0_1090_56857">
<rect width="24" height="24" fill="white"/>
</clipPath>
</defs>
</svg>
