<svg xmlns="http://www.w3.org/2000/svg" width="34" height="34" viewBox="0 0 34 34">
  <g id="Group_2924" data-name="Group 2924" transform="translate(-4387.007 -5024.04)">
    <g id="Group_2923" data-name="Group 2923" transform="translate(4387.007 5024.04)">
      <g id="Group_2891" data-name="Group 2891" transform="translate(0 0)">
        <g id="Group_2804" data-name="Group 2804" transform="translate(0)">
          <g id="Group_92" data-name="Group 92" transform="translate(11.262 3.767)">
            <g id="Group_90" data-name="Group 90">
              <g id="Group_89" data-name="Group 89" transform="translate(6.144 23.683)">
                <path id="Path_83" data-name="Path 83" d="M26.709,364.672" transform="translate(-26.709 -364.672)" fill="#444"/>
              </g>
              <path id="Path_84" data-name="Path 84" d="M31.012,346.874v-.379a.713.713,0,0,0-.1-.36,3.865,3.865,0,0,0-.994-1.785,5.045,5.045,0,0,0-3.574-1.484H25.2a1.733,1.733,0,0,1-1.738-1.385,1.669,1.669,0,0,1,1.644-1.949,1.64,1.64,0,0,1,.169.008,1.66,1.66,0,0,1,1.488,1.649.726.726,0,1,0,1.452.009,3.113,3.113,0,0,0-2.951-3.106,3.254,3.254,0,0,0-.487.012,3.111,3.111,0,0,0,.328,6.2h1.243a3.626,3.626,0,0,1,2.535,1.044,2.335,2.335,0,0,1,.686,1.528v6.355H28.539a.722.722,0,0,0-.722.722V359.1a1.727,1.727,0,0,1-1.726,1.727h-1.78a1.727,1.727,0,0,1-1.726-1.727v-5.143a.722.722,0,0,0-.722-.722H20.639V346.4a.743.743,0,0,1,.82-.723.722.722,0,0,0-.006-1.443,2.26,2.26,0,0,0-2.258,2.258v7.463a.721.721,0,0,0,.721.721h1.224v5.144a2.448,2.448,0,0,0,2.448,2.448h3.223a2.449,2.449,0,0,0,2.448-2.448v-5.144h1.028a.722.722,0,0,0,.722-.721v-6.919Q31.013,346.956,31.012,346.874Z" transform="translate(-19.196 -336.146)" fill="#444"/>
              <path id="Path_85" data-name="Path 85" d="M29.788,339.558a4.557,4.557,0,0,0-4.5-3.845h-.053a4.557,4.557,0,0,0-4.5,3.845,1.4,1.4,0,0,0-1.019,1.241,1.628,1.628,0,0,0,1.794,1.379v-2.757h0a3.823,3.823,0,0,1,3.726-2.974h.053a3.823,3.823,0,0,1,3.726,2.974h0v2.757a1.628,1.628,0,0,0,1.794-1.379A1.4,1.4,0,0,0,29.788,339.558Z" transform="translate(-19.291 -335.713)" fill="#444"/>
            </g>
            <g id="Group_91" data-name="Group 91" transform="translate(3.897 9.674)">
              <path id="Path_86" data-name="Path 86" d="M27.87,351.815a1.508,1.508,0,0,1,.085.292,1.89,1.89,0,0,1,.028.34c0,.043,0,.088,0,.134s-.007.091-.011.133a1.551,1.551,0,0,1-.568,1.014,1.916,1.916,0,0,1-.867.389.708.708,0,0,0-.074.085.147.147,0,0,0-.032.085v.284a.444.444,0,0,1-.13.321.424.424,0,0,1-.316.133.449.449,0,0,1-.324-.133.43.43,0,0,1-.138-.321v-.292a.218.218,0,0,0-.073-.17,2.668,2.668,0,0,1-.487-.178,1.948,1.948,0,0,1-.438-.292,1.665,1.665,0,0,1-.414-.543,1.416,1.416,0,0,1-.146-.608v-.138a.516.516,0,0,1,.159-.377.5.5,0,0,1,.369-.158.5.5,0,0,1,.377.158.53.53,0,0,1,.15.377v.074a.62.62,0,0,0,.082.227v-.008c.027.049.054.093.081.134a.383.383,0,0,0,.1.1,1.487,1.487,0,0,0,.272.166.957.957,0,0,0,.417.077,1.545,1.545,0,0,0,.491-.065.811.811,0,0,0,.292-.158.567.567,0,0,0,.142-.186.64.64,0,0,0,.048-.142.586.586,0,0,0-.21-.539,1.377,1.377,0,0,0-.353-.219,4.805,4.805,0,0,0-.563-.207,3.387,3.387,0,0,1-.973-.47,1.753,1.753,0,0,1-.487-.559,1.427,1.427,0,0,1-.146-.835,1.7,1.7,0,0,1,.174-.511,1.308,1.308,0,0,1,.352-.414h.016a1.958,1.958,0,0,1,.681-.308.213.213,0,0,0,.089-.17V348a.471.471,0,0,1,.462-.462.419.419,0,0,1,.316.137.459.459,0,0,1,.13.325v.348a.155.155,0,0,0,.036.089.825.825,0,0,0,.077.089,2.961,2.961,0,0,1,.349.146,1.439,1.439,0,0,1,.316.218h-.016l.04.025a1.669,1.669,0,0,1,.361.478,1.177,1.177,0,0,1,.134.536.5.5,0,0,1-.158.373.525.525,0,0,1-.9-.373.263.263,0,0,0-.04-.122.537.537,0,0,0-.13-.146.842.842,0,0,0-.536-.178.971.971,0,0,0-.583.17.425.425,0,0,0-.1.122.388.388,0,0,0-.037.1.318.318,0,0,0,.052.244.8.8,0,0,0,.207.2,1.656,1.656,0,0,0,.3.158c.111.046.218.085.321.118q.316.1.661.231a2.235,2.235,0,0,1,.613.353,1.618,1.618,0,0,1,.284.291A1.585,1.585,0,0,1,27.87,351.815Z" transform="translate(-23.961 -347.542)" fill="#444"/>
            </g>
          </g>
          <path id="Path_87" data-name="Path 87" d="M19.28,327.713a17,17,0,1,0,17,17A17.019,17.019,0,0,0,19.28,327.713Zm0,32.869a15.869,15.869,0,1,1,15.869-15.869A15.887,15.887,0,0,1,19.28,360.582Z" transform="translate(-2.28 -327.713)" fill="#444"/>
          <path id="Path_88" data-name="Path 88" d="M19.28,327.713a17,17,0,1,0,17,17A17.019,17.019,0,0,0,19.28,327.713Zm0,32.869a15.869,15.869,0,1,1,15.869-15.869A15.887,15.887,0,0,1,19.28,360.582Z" transform="translate(-2.28 -327.713)" fill="#444"/>
        </g>
      </g>
    </g>
  </g>
</svg>
