<svg width="24" height="24" viewBox="0 0 24 24" fill="none" xmlns="http://www.w3.org/2000/svg">
<path d="M12.0003 3.68373e-09C9.6269 -5.87912e-05 7.30678 0.703684 5.33335 2.02224C3.35991 3.34079 1.8218 5.21493 0.913508 7.40765C0.00521954 9.60038 -0.232446 12.0132 0.230567 14.341C0.693581 16.6688 1.83648 18.807 3.51472 20.4853C5.19297 22.1635 7.33119 23.3064 9.65899 23.7694C11.9868 24.2324 14.3996 23.9948 16.5923 23.0865C18.7851 22.1782 20.6592 20.6401 21.9778 18.6667C23.2963 16.6932 24.0001 14.3731 24 11.9997C23.9965 8.81827 22.7311 5.76815 20.4815 3.51854C18.2318 1.26892 15.1817 0.00354075 12.0003 3.68373e-09ZM12.0003 23.2015C9.78485 23.2016 7.61913 22.5447 5.77702 21.3139C3.9349 20.0831 2.49913 18.3337 1.65126 16.2869C0.803387 14.2401 0.5815 11.9879 1.01366 9.81498C1.44581 7.64209 2.5126 5.64613 4.07912 4.07953C5.64564 2.51293 7.64153 1.44603 9.8144 1.01376C11.9873 0.581493 14.2395 0.803257 16.2864 1.65102C18.3332 2.49878 20.0827 3.93446 21.3136 5.77651C22.5445 7.61856 23.2015 9.78425 23.2015 11.9997C23.1982 14.9695 22.0171 17.8167 19.9171 19.9167C17.8172 22.0167 14.9701 23.1981 12.0003 23.2015Z" fill="#444444"/>
<path d="M12.0003 3.68375e-09C9.6269 -5.87912e-05 7.30678 0.703685 5.33335 2.02224C3.35991 3.34079 1.8218 5.21493 0.913508 7.40765C0.00521958 9.60038 -0.232446 12.0132 0.230567 14.341C0.693581 16.6688 1.83648 18.807 3.51472 20.4853C5.19297 22.1635 7.33119 23.3064 9.65899 23.7694C11.9868 24.2324 14.3996 23.9948 16.5923 23.0865C18.7851 22.1782 20.6592 20.6401 21.9778 18.6667C23.2963 16.6932 24.0001 14.3731 24 11.9997C23.9965 8.81827 22.7311 5.76815 20.4815 3.51854C18.2318 1.26892 15.1817 0.00354075 12.0003 3.68375e-09ZM12.0003 23.2015C9.78485 23.2016 7.61913 22.5447 5.77702 21.3139C3.9349 20.0831 2.49913 18.3337 1.65126 16.2869C0.803387 14.2401 0.5815 11.9879 1.01366 9.81498C1.44581 7.64209 2.5126 5.64613 4.07912 4.07953C5.64564 2.51293 7.64153 1.44603 9.8144 1.01376C11.9873 0.581493 14.2395 0.803257 16.2864 1.65102C18.3332 2.49878 20.0827 3.93446 21.3136 5.77651C22.5445 7.61856 23.2015 9.78425 23.2015 11.9997C23.1982 14.9695 22.0171 17.8167 19.9171 19.9167C17.8172 22.0167 14.9701 23.1981 12.0003 23.2015Z" fill="#444444"/>
<path d="M14.9479 12.5469H13.0456C12.5249 12.5469 12.1016 12.9703 12.1016 13.4909V14.9498C12.1016 15.4705 12.5249 15.8938 13.0456 15.8938H14.9479C15.4685 15.8938 15.8919 15.4705 15.8919 14.9498V13.4909C15.8919 12.9703 15.4685 12.5469 14.9479 12.5469ZM15.2054 14.9498C15.2054 15.0928 15.0881 15.2073 14.9479 15.2073H13.0456C12.9025 15.2073 12.7881 15.09 12.7881 14.9498V13.4909C12.7881 13.3479 12.9054 13.2334 13.0456 13.2334H14.9479C15.0909 13.2334 15.2054 13.3507 15.2054 13.4909V14.9498Z" fill="#444444"/>
<path d="M19 9.89553C19 9.83546 18.9857 9.77824 18.9542 9.72675L16.8717 6.06512C16.8116 5.95928 16.6972 5.89062 16.5742 5.89062H7.42297C7.29996 5.89062 7.18553 5.95642 7.12546 6.06512L5.04577 9.72675C5.01716 9.77824 5 9.83546 5 9.89553C5 10.7165 5.49489 11.4203 6.20147 11.7321V17.7709C6.20147 17.9597 6.35595 18.1142 6.54475 18.1142H8.44136C8.44422 18.1142 8.44708 18.1142 8.44994 18.1142H11.1103C11.1132 18.1142 11.1161 18.1142 11.1189 18.1142H17.4524C17.6412 18.1142 17.7957 17.9597 17.7957 17.7709V11.775C17.7957 11.7607 17.7957 11.7492 17.7928 11.7378C18.5022 11.426 19 10.7194 19 9.89553ZM7.62321 6.58004H16.3739L18.0016 9.44355H5.99837L7.62321 6.58004ZM14.9636 10.1272C14.8549 10.7451 14.3143 11.2143 13.6649 11.2143C13.0155 11.2143 12.4749 10.7451 12.3662 10.1272H14.9636ZM11.6367 10.1272C11.528 10.7451 10.9873 11.2143 10.338 11.2143C9.6886 11.2143 9.14794 10.7451 9.03637 10.1272H11.6367ZM5.70944 10.1272H8.30977C8.20106 10.7451 7.65754 11.2143 7.00817 11.2143C6.35881 11.2171 5.81814 10.7451 5.70944 10.1272ZM10.7671 17.4276H8.79322V13.7231C8.79322 13.4542 9.01062 13.2339 9.28239 13.2339H10.2808C10.5497 13.2339 10.7699 13.4513 10.7699 13.7231V17.4276H10.7671ZM17.1091 17.4276H11.4536V13.7231C11.4536 13.0766 10.9273 12.5473 10.2779 12.5473H9.27953C8.63302 12.5473 8.1038 13.0737 8.1038 13.7231V17.4305H6.88803V11.9008C6.92808 11.9037 6.96812 11.9037 7.00817 11.9037C7.70045 11.9037 8.31263 11.5518 8.67307 11.0169C9.03351 11.5518 9.64569 11.9037 10.338 11.9037C11.0302 11.9037 11.6396 11.5518 12.0029 11.0169C12.3633 11.5518 12.9755 11.9037 13.6649 11.9037C14.3572 11.9037 14.9665 11.5518 15.3269 11.0169C15.6874 11.5518 16.2996 11.9037 16.9918 11.9037C17.0319 11.9037 17.0691 11.9008 17.1091 11.9008V17.4276ZM16.9918 11.2171C16.3425 11.2171 15.8018 10.748 15.6931 10.1301H18.2934C18.1819 10.7451 17.6412 11.2171 16.9918 11.2171Z" fill="#444444"/>
</svg>
