<svg width="24" height="24" viewBox="0 0 24 24" fill="none" xmlns="http://www.w3.org/2000/svg">
<g clip-path="url(#clip0_1090_56932)">
<path d="M12.0003 3.68373e-09C9.6269 -5.87912e-05 7.30678 0.703684 5.33335 2.02224C3.35991 3.34079 1.8218 5.21493 0.913508 7.40765C0.00521954 9.60038 -0.232446 12.0132 0.230567 14.341C0.693581 16.6688 1.83648 18.807 3.51472 20.4853C5.19297 22.1635 7.33119 23.3064 9.65899 23.7694C11.9868 24.2324 14.3996 23.9948 16.5923 23.0865C18.7851 22.1782 20.6592 20.6401 21.9778 18.6667C23.2963 16.6932 24.0001 14.3731 24 11.9997C23.9965 8.81827 22.7311 5.76815 20.4815 3.51854C18.2318 1.26892 15.1817 0.00354075 12.0003 3.68373e-09ZM12.0003 23.2015C9.78485 23.2016 7.61913 22.5447 5.77702 21.3139C3.9349 20.0831 2.49913 18.3337 1.65126 16.2869C0.803387 14.2401 0.5815 11.9879 1.01366 9.81498C1.44581 7.64209 2.5126 5.64613 4.07912 4.07953C5.64564 2.51293 7.64153 1.44603 9.8144 1.01376C11.9873 0.581493 14.2395 0.803257 16.2864 1.65102C18.3332 2.49878 20.0827 3.93446 21.3136 5.77651C22.5445 7.61856 23.2015 9.78425 23.2015 11.9997C23.1982 14.9695 22.0171 17.8167 19.9171 19.9167C17.8172 22.0167 14.9701 23.1981 12.0003 23.2015Z" fill="#444444"/>
<path d="M12.0003 3.68375e-09C9.6269 -5.87912e-05 7.30678 0.703685 5.33335 2.02224C3.35991 3.34079 1.8218 5.21493 0.913508 7.40765C0.00521958 9.60038 -0.232446 12.0132 0.230567 14.341C0.693581 16.6688 1.83648 18.807 3.51472 20.4853C5.19297 22.1635 7.33119 23.3064 9.65899 23.7694C11.9868 24.2324 14.3996 23.9948 16.5923 23.0865C18.7851 22.1782 20.6592 20.6401 21.9778 18.6667C23.2963 16.6932 24.0001 14.3731 24 11.9997C23.9965 8.81827 22.7311 5.76815 20.4815 3.51854C18.2318 1.26892 15.1817 0.00354075 12.0003 3.68375e-09ZM12.0003 23.2015C9.78485 23.2016 7.61913 22.5447 5.77702 21.3139C3.9349 20.0831 2.49913 18.3337 1.65126 16.2869C0.803387 14.2401 0.5815 11.9879 1.01366 9.81498C1.44581 7.64209 2.5126 5.64613 4.07912 4.07953C5.64564 2.51293 7.64153 1.44603 9.8144 1.01376C11.9873 0.581493 14.2395 0.803257 16.2864 1.65102C18.3332 2.49878 20.0827 3.93446 21.3136 5.77651C22.5445 7.61856 23.2015 9.78425 23.2015 11.9997C23.1982 14.9695 22.0171 17.8167 19.9171 19.9167C17.8172 22.0167 14.9701 23.1981 12.0003 23.2015Z" fill="#444444"/>
<path d="M17.2798 11.4123C17.0203 11.2519 16.7314 11.2192 16.4766 11.2443V10.9766C16.4766 8.23948 14.2368 6 11.5 6C8.76292 6 6.52344 8.23981 6.52344 10.9766V11.2443C6.26862 11.2192 5.97967 11.2519 5.72015 11.4123C5.24228 11.7076 5 12.3299 5 13.2617C5 14.1951 5.24273 14.8207 5.72147 15.121C5.95928 15.2702 6.23701 15.322 6.52344 15.2974V15.5723C6.52344 15.7826 6.69396 15.9531 6.9043 15.9531H8.42773C8.63807 15.9531 8.80859 15.7826 8.80859 15.5723V10.9766C8.80859 10.7662 8.63807 10.5957 8.42773 10.5957H7.30255C7.49572 8.44946 9.30432 6.76172 11.5 6.76172C13.6957 6.76172 15.5043 8.44946 15.6975 10.5957H14.5723C14.3619 10.5957 14.1914 10.7662 14.1914 10.9766V15.5723C14.1914 15.7826 14.3619 15.9531 14.5723 15.9531H15.7148V16.334C15.7148 16.964 15.2023 17.4766 14.5723 17.4766H13.3388C13.1816 17.0333 12.7582 16.7148 12.2617 16.7148H11.5C10.87 16.7148 10.3574 17.2274 10.3574 17.8574C10.3574 18.4874 10.87 19 11.5 19H12.2617C12.7582 19 13.1816 18.6816 13.3388 18.2383H14.5723C15.6223 18.2383 16.4766 17.384 16.4766 16.334C16.4766 15.8701 16.4766 15.5984 16.4766 15.2974C16.763 15.322 17.0408 15.2702 17.2785 15.121C17.7573 14.8207 18 14.1951 18 13.2617C18 12.3299 17.7577 11.7076 17.2798 11.4123ZM6.52344 14.5308C6.40192 14.5519 6.25003 14.5534 6.12628 14.4757C5.89119 14.3283 5.76172 13.8971 5.76172 13.2617C5.76172 12.6324 5.88829 12.2063 6.1181 12.0618C6.24236 11.9837 6.39892 11.9892 6.52344 12.0138V14.5308ZM8.04688 11.3574V15.1914H7.28516V11.3574H8.04688ZM12.2617 18.2383H11.5C11.29 18.2383 11.1191 18.0674 11.1191 17.8574C11.1191 17.6474 11.29 17.4766 11.5 17.4766H12.2617C12.4717 17.4766 12.6426 17.6474 12.6426 17.8574C12.6426 18.0674 12.4717 18.2383 12.2617 18.2383ZM15.7148 15.1914H14.9531V11.3574H15.7148V15.1914ZM16.8764 14.474C16.7533 14.5526 16.5998 14.5511 16.4766 14.5298V12.0138C16.6011 11.9892 16.7576 11.9837 16.8819 12.0618C17.1117 12.2063 17.2383 12.6324 17.2383 13.2617C17.2383 13.8945 17.1098 14.3251 16.8764 14.474Z" fill="#444444"/>
</g>
<defs>
<clipPath id="clip0_1090_56932">
<rect width="24" height="24" fill="white"/>
</clipPath>
</defs>
</svg>
